<svg width="394" height="402" viewBox="0 0 394 402" fill="none" xmlns="http://www.w3.org/2000/svg">
<path d="M98.7158 1.90796C105.093 -1.01465 112.529 -0.563243 118.519 3.14526C124.701 6.97344 128.464 13.7279 128.464 20.9998V35.2908L128.45 36.0515C128.168 43.8805 123.54 50.9303 116.415 54.2878L89.9434 66.7615L115.567 77.4802L116.291 77.7996C123.691 81.2261 128.464 88.6509 128.464 96.8533V111.145C128.464 118.236 124.885 124.847 118.949 128.725C116.157 130.55 113.021 131.653 109.806 132.013L118.105 146.497L128.067 129.454L128.429 128.857C132.264 122.767 138.968 119.05 146.197 119.05H168.41C173.052 119.05 177.473 120.584 181.059 123.29L181.779 121.362L181.927 120.978C185.09 112.981 192.825 107.705 201.453 107.705H217.241C220.75 107.705 224.144 108.584 227.149 110.192C228.311 109.993 229.505 109.888 230.724 109.888H250.917C262.515 109.889 271.917 119.291 271.917 130.888V154.669C273.651 154.497 275.402 154.412 277.168 154.412C291.367 154.412 304.346 159.699 313.849 170.899C323.444 181.93 326.806 195.964 326.806 210.041V255.48C326.805 267.078 317.403 276.48 305.806 276.48H304.753L381.62 314.76C388.751 318.311 393.259 325.591 393.259 333.557V342.719C393.259 351.054 388.329 358.6 380.695 361.949L294.231 399.877C287.738 402.725 280.246 402.103 274.31 398.225C268.374 394.347 264.796 387.736 264.796 380.645V366.354C264.796 357.87 269.901 350.219 277.735 346.963L303.312 336.331L276.803 323.768C269.47 320.294 264.796 312.905 264.796 304.791V290.5C264.796 283.442 268.34 276.871 274.201 272.99C271.891 271.457 269.902 269.481 268.355 267.181C264.585 272.789 258.182 276.48 250.917 276.48H230.724C219.126 276.48 209.724 267.078 209.724 255.48V208.895L188.084 266.87C185.019 275.082 177.175 280.526 168.41 280.526H152.623C146.882 280.526 141.446 278.177 137.522 274.117C134.625 275.625 131.332 276.48 127.84 276.48H107.464C95.866 276.48 86.4641 267.078 86.4639 255.48V213.986L48.8486 150.791C44.9858 144.301 44.9051 136.236 48.6377 129.671C52.3704 123.105 59.3413 119.05 66.8936 119.05H73.2051L12.5645 92.449C4.93082 89.1005 0.000169971 81.5542 0 73.2185V64.0574C4.89242e-05 56.091 4.50759 48.8097 11.6387 45.2585L98.1025 2.2019L98.7158 1.90796ZM285.796 304.792L355.003 337.589L285.796 366.354V380.645L372.259 342.719V333.557L285.796 290.5V304.792ZM201.453 128.706L152.623 259.526H168.41L192.825 194.116L217.241 128.706H201.453ZM66.8936 140.051L107.464 208.209V255.48H127.84V208.025L168.41 140.051H146.197L117.927 188.421L90.207 140.051H66.8936ZM230.724 130.889V255.48H250.917V216.454C250.917 208.392 252.691 202.468 256.24 198.681C259.789 194.773 264.44 192.818 270.192 192.818L270.692 192.823C275.82 192.93 279.569 194.7 281.94 198.132C284.51 201.674 285.796 206.743 285.796 213.339V255.48H305.806V210.041C305.806 199.048 303.174 190.558 297.912 184.573C292.772 178.466 285.857 175.412 277.168 175.412C271.539 175.412 266.398 176.817 261.748 179.626C257.22 182.313 253.609 186.405 250.917 191.902V130.889H230.724ZM21 64.0574V73.2185L107.464 111.145V96.8542L38.2559 67.905L107.464 35.2908V20.9998L21 64.0574Z" fill="white"/>
</svg>
