<svg width="672" height="158" viewBox="0 0 672 158" fill="none" xmlns="http://www.w3.org/2000/svg">
<mask id="path-1-outside-1_24_2" maskUnits="userSpaceOnUse" x="0" y="0" width="672" height="158" fill="black">
<rect fill="white" width="672" height="158"/>
<path d="M101.257 92.5499V63.8854L76.6562 22.5551H90.7934L107.602 51.8863L124.745 22.5551H138.214L113.613 63.7743V92.5499H101.257Z"/>
<path d="M205.439 45.6645V72.4403C205.439 76.0697 206.144 78.8102 207.554 80.6619C208.964 82.5136 211.116 83.4395 214.01 83.4395C217.053 83.4395 219.576 82.2174 221.58 79.7731C223.583 77.3288 224.585 73.5884 224.585 68.5517V45.6645H236.719V92.5499H224.585V84.3283C222.953 87.6614 220.763 90.1427 218.018 91.7722C215.346 93.4017 212.452 94.2165 209.335 94.2165C204.511 94.2165 200.615 92.624 197.647 89.439C194.678 86.18 193.194 81.6248 193.194 75.7734V45.6645H205.439Z"/>
<path d="M244.93 55.6638V45.6645H256.729V26.777H268.863V45.6645H284.67V55.6638H268.863V74.6624C268.863 77.7732 269.531 79.9953 270.867 81.3285C272.202 82.5877 274.243 83.2173 276.989 83.2173C278.251 83.2173 279.549 83.1432 280.885 82.9951C282.221 82.7729 283.482 82.5136 284.67 82.2174V93.3276C283.111 93.6239 281.516 93.8461 279.883 93.9943C278.251 94.1424 276.692 94.2165 275.208 94.2165C268.974 94.2165 264.336 92.7721 261.293 89.8835C258.251 86.9207 256.729 82.2544 256.729 75.8845V55.6638H244.93Z"/>
<path d="M295.615 92.5499V17H307.859V53.9972C309.492 50.6642 311.681 48.1829 314.427 46.5533C317.247 44.8498 320.364 43.998 323.778 43.998C329.047 43.998 333.239 45.8497 336.356 49.5531C339.547 53.1825 341.143 58.3302 341.143 64.9964V92.5499H329.009V66.9963C329.009 62.9966 328.23 59.9227 326.672 57.7747C325.188 55.6267 322.813 54.5528 319.548 54.5528C316.06 54.5528 313.24 55.7379 311.087 58.108C308.935 60.4042 307.859 63.9965 307.859 68.885V92.5499H295.615Z"/>
<path d="M380.921 102.67C380.921 98.6698 381.514 95.1145 382.702 92.0037C383.963 88.8187 385.596 86.1893 387.6 84.1154C389.678 81.9674 392.015 80.3379 394.613 79.2268C397.21 78.1158 399.845 77.5603 402.516 77.5603C405.707 77.5603 408.787 78.338 411.755 79.8935C414.724 81.4489 417.136 83.8191 418.991 87.004V79.2268H431.124V126.112H418.991V118.335C417.136 121.52 414.724 123.89 411.755 125.446C408.787 127.001 405.707 127.779 402.516 127.779C399.845 127.779 397.21 127.223 394.613 126.112C392.015 125.001 389.678 123.409 387.6 121.335C385.596 119.187 383.963 116.557 382.702 113.447C381.514 110.262 380.921 106.669 380.921 102.67ZM405.856 88.1151C401.997 88.1151 398.917 89.5224 396.616 92.337C394.39 95.1516 393.277 98.5958 393.277 102.67C393.277 106.743 394.39 110.188 396.616 113.002C398.917 115.817 401.997 117.224 405.856 117.224C409.64 117.224 412.794 115.965 415.317 113.447C417.915 110.854 419.214 107.262 419.214 102.67C419.214 98.0773 417.915 94.522 415.317 92.0037C412.794 89.4113 409.64 88.1151 405.856 88.1151Z"/>
<path d="M454.585 102.67C454.585 107.484 455.698 111.187 457.925 113.78C460.225 116.372 463.082 117.668 466.496 117.668C469.168 117.668 471.431 116.928 473.286 115.446C475.216 113.891 476.589 111.632 477.405 108.669H489.984C488.722 115.187 485.902 120.002 481.524 123.112C477.145 126.223 472.247 127.779 466.83 127.779C463.49 127.779 460.299 127.223 457.257 126.112C454.288 124.927 451.691 123.298 449.465 121.224C447.238 119.076 445.457 116.446 444.121 113.335C442.86 110.15 442.229 106.595 442.229 102.67C442.229 98.7439 442.86 95.2256 444.121 92.1148C445.457 89.0039 447.238 86.3745 449.465 84.2265C451.691 82.0785 454.288 80.449 457.257 79.3379C460.299 78.1528 463.49 77.5603 466.83 77.5603C472.322 77.5603 477.257 79.1528 481.635 82.3377C486.013 85.4486 488.796 90.3371 489.984 97.0033H477.405C476.663 93.9665 475.327 91.6704 473.398 90.1149C471.542 88.4854 469.242 87.6707 466.496 87.6707C463.082 87.6707 460.225 88.9669 457.925 91.5592C455.698 94.1516 454.585 97.8551 454.585 102.67Z"/>
<path d="M500.347 126.112V50.5623H512.591V98.1143L531.181 79.2268H545.541L524.168 101.447L547.211 126.112H531.515L512.591 105.003V126.112H500.347Z"/>
<path d="M591.127 93.1147H579.216C579.142 90.9667 578.325 89.3742 576.767 88.3373C575.283 87.2262 573.279 86.6707 570.756 86.6707C568.604 86.6707 566.86 87.0411 565.524 87.7818C564.262 88.5224 563.632 89.5964 563.632 91.0037C563.632 92.411 564.151 93.5221 565.19 94.3368C566.303 95.1516 568.01 95.8182 570.311 96.3367L581.331 98.7809C584.967 99.5216 587.787 100.929 589.791 103.003C591.869 105.077 592.908 107.965 592.908 111.669C592.908 116.187 591.015 120.002 587.231 123.112C583.446 126.223 578.437 127.779 572.203 127.779C565.895 127.779 560.7 126.223 556.619 123.112C552.611 119.928 550.496 115.854 550.274 110.891H562.407C562.704 113.558 563.743 115.52 565.524 116.78C567.379 118.039 569.754 118.668 572.648 118.668C575.171 118.668 577.138 118.187 578.548 117.224C579.958 116.187 580.663 114.854 580.663 113.224C580.663 111.891 580.144 110.817 579.105 110.002C578.066 109.188 576.619 108.595 574.763 108.225L565.19 106.003C561.183 105.04 557.917 103.447 555.394 101.225C552.945 99.0031 551.721 95.9293 551.721 92.0037C551.721 87.6336 553.428 84.1524 556.841 81.56C560.255 78.8935 564.967 77.5603 570.979 77.5603C576.841 77.5603 581.591 78.8935 585.227 81.56C588.863 84.1524 590.83 88.004 591.127 93.1147Z"/>
<path d="M383.36 49.0995L353.75 128.427H344.177L373.787 49.0995H383.36Z"/>
<path d="M69.43 79.662L17 56.6637V51.1086L69.43 24.9994V33.6654L27.4637 53.4417L69.43 70.996V79.662Z"/>
<path d="M602.57 132.334L644.536 114.891L602.57 95.0034V86.3374L655 112.447V118.002L602.57 141V132.334Z"/>
<path fill-rule="evenodd" clip-rule="evenodd" d="M162.801 44.0965C162.293 43.8807 161.706 44.1179 161.49 44.6263L160.765 46.3331C160.181 47.71 158.727 48.4895 157.231 48.4647C155.76 48.4404 154.383 47.6354 153.832 46.2713L153.138 44.5542C152.931 44.0422 152.348 43.7948 151.836 44.0016L143.451 47.3896C142.939 47.5965 142.691 48.1793 142.898 48.6914L143.592 50.4094C144.143 51.7731 143.712 53.3084 142.671 54.3475C141.613 55.404 140.025 55.8535 138.649 55.2692L136.942 54.5445C136.433 54.3287 135.846 54.5659 135.63 55.0743L132.097 63.3994C131.881 63.9078 132.118 64.4948 132.626 64.7106L134.733 65.6047C136.007 66.1456 136.753 67.4675 136.772 68.8516C136.792 70.294 136.018 71.6629 134.68 72.2033L132.553 73.0626C132.041 73.2695 131.794 73.8524 132.001 74.3644L135.389 82.7499C135.596 83.262 136.178 83.5094 136.69 83.3025L139.38 82.2159C140.574 81.7333 141.921 82.0887 142.843 82.9883C143.803 83.9254 144.203 85.3505 143.679 86.5857L142.544 89.2589C142.329 89.7673 142.566 90.3543 143.074 90.5701L151.399 94.1039C151.908 94.3197 152.495 94.0825 152.711 93.5741L154.011 90.5111C154.493 89.3739 155.672 88.7057 156.907 88.7042C158.164 88.7026 159.343 89.3941 159.814 90.5597L161.062 93.6478C161.269 94.1599 161.851 94.4073 162.364 94.2004L170.749 90.8124C171.261 90.6055 171.508 90.0227 171.302 89.5106L170.054 86.4235C169.583 85.2575 169.951 83.9408 170.857 83.0684C171.747 82.2111 173.059 81.8732 174.196 82.356L177.259 83.656C177.767 83.8718 178.354 83.6346 178.57 83.1263L182.104 74.8012C182.32 74.2928 182.082 73.7057 181.574 73.4899L178.901 72.3552C177.666 71.8309 176.964 70.5278 177.004 69.1864C177.042 67.8989 177.764 66.7079 178.958 66.2253L181.647 65.1389C182.159 64.932 182.406 64.3492 182.199 63.8371L178.811 55.4517C178.605 54.9396 178.022 54.6922 177.51 54.8991L175.383 55.7582C174.046 56.2986 172.538 55.8517 171.55 54.8003C170.603 53.7912 170.221 52.3222 170.762 51.0479L171.656 48.9416C171.872 48.4332 171.635 47.8461 171.126 47.6303L162.801 44.0965ZM156.5 81C163.404 81 169 75.4036 169 68.5C169 61.5964 163.404 56 156.5 56C149.596 56 144 61.5964 144 68.5C144 75.4036 149.596 81 156.5 81Z"/>
</mask>
<path d="M101.257 92.5499V63.8854L76.6562 22.5551H90.7934L107.602 51.8863L124.745 22.5551H138.214L113.613 63.7743V92.5499H101.257Z" stroke="black" stroke-width="34" stroke-linejoin="round" mask="url(#path-1-outside-1_24_2)"/>
<path d="M205.439 45.6645V72.4403C205.439 76.0697 206.144 78.8102 207.554 80.6619C208.964 82.5136 211.116 83.4395 214.01 83.4395C217.053 83.4395 219.576 82.2174 221.58 79.7731C223.583 77.3288 224.585 73.5884 224.585 68.5517V45.6645H236.719V92.5499H224.585V84.3283C222.953 87.6614 220.763 90.1427 218.018 91.7722C215.346 93.4017 212.452 94.2165 209.335 94.2165C204.511 94.2165 200.615 92.624 197.647 89.439C194.678 86.18 193.194 81.6248 193.194 75.7734V45.6645H205.439Z" stroke="black" stroke-width="34" stroke-linejoin="round" mask="url(#path-1-outside-1_24_2)"/>
<path d="M244.93 55.6638V45.6645H256.729V26.777H268.863V45.6645H284.67V55.6638H268.863V74.6624C268.863 77.7732 269.531 79.9953 270.867 81.3285C272.202 82.5877 274.243 83.2173 276.989 83.2173C278.251 83.2173 279.549 83.1432 280.885 82.9951C282.221 82.7729 283.482 82.5136 284.67 82.2174V93.3276C283.111 93.6239 281.516 93.8461 279.883 93.9943C278.251 94.1424 276.692 94.2165 275.208 94.2165C268.974 94.2165 264.336 92.7721 261.293 89.8835C258.251 86.9207 256.729 82.2544 256.729 75.8845V55.6638H244.93Z" stroke="black" stroke-width="34" stroke-linejoin="round" mask="url(#path-1-outside-1_24_2)"/>
<path d="M295.615 92.5499V17H307.859V53.9972C309.492 50.6642 311.681 48.1829 314.427 46.5533C317.247 44.8498 320.364 43.998 323.778 43.998C329.047 43.998 333.239 45.8497 336.356 49.5531C339.547 53.1825 341.143 58.3302 341.143 64.9964V92.5499H329.009V66.9963C329.009 62.9966 328.23 59.9227 326.672 57.7747C325.188 55.6267 322.813 54.5528 319.548 54.5528C316.06 54.5528 313.24 55.7379 311.087 58.108C308.935 60.4042 307.859 63.9965 307.859 68.885V92.5499H295.615Z" stroke="black" stroke-width="34" stroke-linejoin="round" mask="url(#path-1-outside-1_24_2)"/>
<path d="M380.921 102.67C380.921 98.6698 381.514 95.1145 382.702 92.0037C383.963 88.8187 385.596 86.1893 387.6 84.1154C389.678 81.9674 392.015 80.3379 394.613 79.2268C397.21 78.1158 399.845 77.5603 402.516 77.5603C405.707 77.5603 408.787 78.338 411.755 79.8935C414.724 81.4489 417.136 83.8191 418.991 87.004V79.2268H431.124V126.112H418.991V118.335C417.136 121.52 414.724 123.89 411.755 125.446C408.787 127.001 405.707 127.779 402.516 127.779C399.845 127.779 397.21 127.223 394.613 126.112C392.015 125.001 389.678 123.409 387.6 121.335C385.596 119.187 383.963 116.557 382.702 113.447C381.514 110.262 380.921 106.669 380.921 102.67ZM405.856 88.1151C401.997 88.1151 398.917 89.5224 396.616 92.337C394.39 95.1516 393.277 98.5958 393.277 102.67C393.277 106.743 394.39 110.188 396.616 113.002C398.917 115.817 401.997 117.224 405.856 117.224C409.64 117.224 412.794 115.965 415.317 113.447C417.915 110.854 419.214 107.262 419.214 102.67C419.214 98.0773 417.915 94.522 415.317 92.0037C412.794 89.4113 409.64 88.1151 405.856 88.1151Z" stroke="black" stroke-width="34" stroke-linejoin="round" mask="url(#path-1-outside-1_24_2)"/>
<path d="M454.585 102.67C454.585 107.484 455.698 111.187 457.925 113.78C460.225 116.372 463.082 117.668 466.496 117.668C469.168 117.668 471.431 116.928 473.286 115.446C475.216 113.891 476.589 111.632 477.405 108.669H489.984C488.722 115.187 485.902 120.002 481.524 123.112C477.145 126.223 472.247 127.779 466.83 127.779C463.49 127.779 460.299 127.223 457.257 126.112C454.288 124.927 451.691 123.298 449.465 121.224C447.238 119.076 445.457 116.446 444.121 113.335C442.86 110.15 442.229 106.595 442.229 102.67C442.229 98.7439 442.86 95.2256 444.121 92.1148C445.457 89.0039 447.238 86.3745 449.465 84.2265C451.691 82.0785 454.288 80.449 457.257 79.3379C460.299 78.1528 463.49 77.5603 466.83 77.5603C472.322 77.5603 477.257 79.1528 481.635 82.3377C486.013 85.4486 488.796 90.3371 489.984 97.0033H477.405C476.663 93.9665 475.327 91.6704 473.398 90.1149C471.542 88.4854 469.242 87.6707 466.496 87.6707C463.082 87.6707 460.225 88.9669 457.925 91.5592C455.698 94.1516 454.585 97.8551 454.585 102.67Z" stroke="black" stroke-width="34" stroke-linejoin="round" mask="url(#path-1-outside-1_24_2)"/>
<path d="M500.347 126.112V50.5623H512.591V98.1143L531.181 79.2268H545.541L524.168 101.447L547.211 126.112H531.515L512.591 105.003V126.112H500.347Z" stroke="black" stroke-width="34" stroke-linejoin="round" mask="url(#path-1-outside-1_24_2)"/>
<path d="M591.127 93.1147H579.216C579.142 90.9667 578.325 89.3742 576.767 88.3373C575.283 87.2262 573.279 86.6707 570.756 86.6707C568.604 86.6707 566.86 87.0411 565.524 87.7818C564.262 88.5224 563.632 89.5964 563.632 91.0037C563.632 92.411 564.151 93.5221 565.19 94.3368C566.303 95.1516 568.01 95.8182 570.311 96.3367L581.331 98.7809C584.967 99.5216 587.787 100.929 589.791 103.003C591.869 105.077 592.908 107.965 592.908 111.669C592.908 116.187 591.015 120.002 587.231 123.112C583.446 126.223 578.437 127.779 572.203 127.779C565.895 127.779 560.7 126.223 556.619 123.112C552.611 119.928 550.496 115.854 550.274 110.891H562.407C562.704 113.558 563.743 115.52 565.524 116.78C567.379 118.039 569.754 118.668 572.648 118.668C575.171 118.668 577.138 118.187 578.548 117.224C579.958 116.187 580.663 114.854 580.663 113.224C580.663 111.891 580.144 110.817 579.105 110.002C578.066 109.188 576.619 108.595 574.763 108.225L565.19 106.003C561.183 105.04 557.917 103.447 555.394 101.225C552.945 99.0031 551.721 95.9293 551.721 92.0037C551.721 87.6336 553.428 84.1524 556.841 81.56C560.255 78.8935 564.967 77.5603 570.979 77.5603C576.841 77.5603 581.591 78.8935 585.227 81.56C588.863 84.1524 590.83 88.004 591.127 93.1147Z" stroke="black" stroke-width="34" stroke-linejoin="round" mask="url(#path-1-outside-1_24_2)"/>
<path d="M383.36 49.0995L353.75 128.427H344.177L373.787 49.0995H383.36Z" stroke="black" stroke-width="34" stroke-linejoin="round" mask="url(#path-1-outside-1_24_2)"/>
<path d="M69.43 79.662L17 56.6637V51.1086L69.43 24.9994V33.6654L27.4637 53.4417L69.43 70.996V79.662Z" stroke="black" stroke-width="34" stroke-linejoin="round" mask="url(#path-1-outside-1_24_2)"/>
<path d="M602.57 132.334L644.536 114.891L602.57 95.0034V86.3374L655 112.447V118.002L602.57 141V132.334Z" stroke="black" stroke-width="34" stroke-linejoin="round" mask="url(#path-1-outside-1_24_2)"/>
<path fill-rule="evenodd" clip-rule="evenodd" d="M162.801 44.0965C162.293 43.8807 161.706 44.1179 161.49 44.6263L160.765 46.3331C160.181 47.71 158.727 48.4895 157.231 48.4647C155.76 48.4404 154.383 47.6354 153.832 46.2713L153.138 44.5542C152.931 44.0422 152.348 43.7948 151.836 44.0016L143.451 47.3896C142.939 47.5965 142.691 48.1793 142.898 48.6914L143.592 50.4094C144.143 51.7731 143.712 53.3084 142.671 54.3475C141.613 55.404 140.025 55.8535 138.649 55.2692L136.942 54.5445C136.433 54.3287 135.846 54.5659 135.63 55.0743L132.097 63.3994C131.881 63.9078 132.118 64.4948 132.626 64.7106L134.733 65.6047C136.007 66.1456 136.753 67.4675 136.772 68.8516C136.792 70.294 136.018 71.6629 134.68 72.2033L132.553 73.0626C132.041 73.2695 131.794 73.8524 132.001 74.3644L135.389 82.7499C135.596 83.262 136.178 83.5094 136.69 83.3025L139.38 82.2159C140.574 81.7333 141.921 82.0887 142.843 82.9883C143.803 83.9254 144.203 85.3505 143.679 86.5857L142.544 89.2589C142.329 89.7673 142.566 90.3543 143.074 90.5701L151.399 94.1039C151.908 94.3197 152.495 94.0825 152.711 93.5741L154.011 90.5111C154.493 89.3739 155.672 88.7057 156.907 88.7042C158.164 88.7026 159.343 89.3941 159.814 90.5597L161.062 93.6478C161.269 94.1599 161.851 94.4073 162.364 94.2004L170.749 90.8124C171.261 90.6055 171.508 90.0227 171.302 89.5106L170.054 86.4235C169.583 85.2575 169.951 83.9408 170.857 83.0684C171.747 82.2111 173.059 81.8732 174.196 82.356L177.259 83.656C177.767 83.8718 178.354 83.6346 178.57 83.1263L182.104 74.8012C182.32 74.2928 182.082 73.7057 181.574 73.4899L178.901 72.3552C177.666 71.8309 176.964 70.5278 177.004 69.1864C177.042 67.8989 177.764 66.7079 178.958 66.2253L181.647 65.1389C182.159 64.932 182.406 64.3492 182.199 63.8371L178.811 55.4517C178.605 54.9396 178.022 54.6922 177.51 54.8991L175.383 55.7582C174.046 56.2986 172.538 55.8517 171.55 54.8003C170.603 53.7912 170.221 52.3222 170.762 51.0479L171.656 48.9416C171.872 48.4332 171.635 47.8461 171.126 47.6303L162.801 44.0965ZM156.5 81C163.404 81 169 75.4036 169 68.5C169 61.5964 163.404 56 156.5 56C149.596 56 144 61.5964 144 68.5C144 75.4036 149.596 81 156.5 81Z" stroke="black" stroke-width="34" stroke-linejoin="round" mask="url(#path-1-outside-1_24_2)"/>
<path d="M162 68.5C162 71.5376 159.538 74 156.5 74C153.462 74 151 71.5376 151 68.5C151 65.4624 153.462 63 156.5 63C159.538 63 162 65.4624 162 68.5Z" fill="black"/>
<path d="M411 102.5C411 106.09 408.761 109 406 109C403.239 109 401 106.09 401 102.5C401 98.9101 403.239 96 406 96C408.761 96 411 98.9101 411 102.5Z" fill="black"/>
<path d="M624 113.688L599 124V102L624 113.688Z" fill="black"/>
<path d="M53 53.3125L78 43V65L53 53.3125Z" fill="black"/>
<path d="M599 124H598.5V124.747L599.191 124.462L599 124ZM624 113.688L624.191 114.15L625.242 113.716L624.212 113.235L624 113.688ZM599 102L599.212 101.547L598.5 101.214V102H599ZM78 43H78.5V42.2529L77.8093 42.5378L78 43ZM53 53.3125L52.8093 52.8503L51.7582 53.2839L52.7882 53.7654L53 53.3125ZM78 65L77.7882 65.4529L78.5 65.7857V65H78ZM161.5 68.5C161.5 71.2614 159.261 73.5 156.5 73.5V74.5C159.814 74.5 162.5 71.8137 162.5 68.5H161.5ZM156.5 73.5C153.739 73.5 151.5 71.2614 151.5 68.5H150.5C150.5 71.8137 153.186 74.5 156.5 74.5V73.5ZM151.5 68.5C151.5 65.7386 153.739 63.5 156.5 63.5V62.5C153.186 62.5 150.5 65.1863 150.5 68.5H151.5ZM156.5 63.5C159.261 63.5 161.5 65.7386 161.5 68.5H162.5C162.5 65.1863 159.814 62.5 156.5 62.5V63.5ZM410.5 102.5C410.5 104.194 409.971 105.71 409.139 106.791C408.308 107.872 407.193 108.5 406 108.5V109.5C407.568 109.5 408.954 108.673 409.932 107.401C410.909 106.13 411.5 104.396 411.5 102.5H410.5ZM406 108.5C404.807 108.5 403.692 107.872 402.861 106.791C402.029 105.71 401.5 104.194 401.5 102.5H400.5C400.5 104.396 401.091 106.13 402.068 107.401C403.046 108.673 404.432 109.5 406 109.5V108.5ZM401.5 102.5C401.5 100.806 402.029 99.2903 402.861 98.2087C403.692 97.1276 404.807 96.5 406 96.5V95.5C404.432 95.5 403.046 96.3275 402.068 97.5989C401.091 98.8699 400.5 100.604 400.5 102.5H401.5ZM406 96.5C407.193 96.5 408.308 97.1276 409.139 98.2087C409.971 99.2903 410.5 100.806 410.5 102.5H411.5C411.5 100.604 410.909 98.8699 409.932 97.5989C408.954 96.3275 407.568 95.5 406 95.5V96.5ZM599.191 124.462L624.191 114.15L623.809 113.225L598.809 123.538L599.191 124.462ZM624.212 113.235L599.212 101.547L598.788 102.453L623.788 114.14L624.212 113.235ZM599.5 124V102H598.5V124H599.5ZM77.8093 42.5378L52.8093 52.8503L53.1907 53.7747L78.1907 43.4622L77.8093 42.5378ZM52.7882 53.7654L77.7882 65.4529L78.2118 64.5471L53.2118 52.8596L52.7882 53.7654ZM77.5 43V65H78.5V43H77.5Z" fill="black"/>
</svg>
