<svg width="672" height="158" viewBox="0 0 672 158" fill="none" xmlns="http://www.w3.org/2000/svg">
<path d="M101.257 92.5499V63.8854L76.6562 22.5551H90.7934L107.602 51.8863L124.745 22.5551H138.214L113.613 63.7743V92.5499H101.257Z" fill="white"/>
<path d="M205.439 45.6645V72.4403C205.439 76.0697 206.144 78.8102 207.554 80.6619C208.964 82.5136 211.116 83.4395 214.01 83.4395C217.053 83.4395 219.576 82.2174 221.58 79.7731C223.583 77.3288 224.585 73.5884 224.585 68.5517V45.6645H236.719V92.5499H224.585V84.3283C222.953 87.6614 220.763 90.1427 218.018 91.7722C215.346 93.4017 212.452 94.2165 209.335 94.2165C204.511 94.2165 200.615 92.624 197.647 89.439C194.678 86.18 193.194 81.6248 193.194 75.7734V45.6645H205.439Z" fill="white"/>
<path d="M244.93 55.6638V45.6645H256.729V26.777H268.863V45.6645H284.67V55.6638H268.863V74.6624C268.863 77.7732 269.531 79.9953 270.867 81.3285C272.202 82.5877 274.243 83.2173 276.989 83.2173C278.251 83.2173 279.549 83.1432 280.885 82.9951C282.221 82.7729 283.482 82.5136 284.67 82.2174V93.3276C283.111 93.6239 281.516 93.8461 279.883 93.9943C278.251 94.1424 276.692 94.2165 275.208 94.2165C268.974 94.2165 264.336 92.7721 261.293 89.8835C258.251 86.9207 256.729 82.2544 256.729 75.8845V55.6638H244.93Z" fill="white"/>
<path d="M295.615 92.5499V17H307.859V53.9972C309.492 50.6642 311.681 48.1829 314.427 46.5533C317.247 44.8498 320.364 43.998 323.778 43.998C329.047 43.998 333.239 45.8497 336.356 49.5531C339.547 53.1825 341.143 58.3302 341.143 64.9964V92.5499H329.009V66.9963C329.009 62.9966 328.23 59.9227 326.672 57.7747C325.188 55.6267 322.813 54.5528 319.548 54.5528C316.06 54.5528 313.24 55.7379 311.087 58.108C308.935 60.4042 307.859 63.9965 307.859 68.885V92.5499H295.615Z" fill="white"/>
<path d="M380.921 102.67C380.921 98.6698 381.514 95.1145 382.702 92.0037C383.963 88.8187 385.596 86.1893 387.6 84.1154C389.678 81.9674 392.015 80.3379 394.613 79.2268C397.21 78.1158 399.845 77.5603 402.516 77.5603C405.707 77.5603 408.787 78.338 411.755 79.8935C414.724 81.4489 417.136 83.8191 418.991 87.004V79.2268H431.124V126.112H418.991V118.335C417.136 121.52 414.724 123.89 411.755 125.446C408.787 127.001 405.707 127.779 402.516 127.779C399.845 127.779 397.21 127.223 394.613 126.112C392.015 125.001 389.678 123.409 387.6 121.335C385.596 119.187 383.963 116.557 382.702 113.447C381.514 110.262 380.921 106.669 380.921 102.67ZM405.856 88.1151C401.997 88.1151 398.917 89.5224 396.616 92.337C394.39 95.1516 393.277 98.5958 393.277 102.67C393.277 106.743 394.39 110.188 396.616 113.002C398.917 115.817 401.997 117.224 405.856 117.224C409.64 117.224 412.794 115.965 415.317 113.447C417.915 110.854 419.214 107.262 419.214 102.67C419.214 98.0773 417.915 94.522 415.317 92.0037C412.794 89.4113 409.64 88.1151 405.856 88.1151Z" fill="white"/>
<path d="M454.585 102.67C454.585 107.484 455.698 111.187 457.925 113.78C460.225 116.372 463.082 117.668 466.496 117.668C469.168 117.668 471.431 116.928 473.286 115.446C475.216 113.891 476.589 111.632 477.405 108.669H489.984C488.722 115.187 485.902 120.002 481.524 123.112C477.145 126.223 472.247 127.779 466.83 127.779C463.49 127.779 460.299 127.223 457.257 126.112C454.288 124.927 451.691 123.298 449.465 121.224C447.238 119.076 445.457 116.446 444.121 113.335C442.86 110.15 442.229 106.595 442.229 102.67C442.229 98.7439 442.86 95.2257 444.121 92.1148C445.457 89.0039 447.238 86.3745 449.465 84.2265C451.691 82.0785 454.288 80.449 457.257 79.3379C460.299 78.1528 463.49 77.5603 466.83 77.5603C472.322 77.5603 477.257 79.1528 481.635 82.3377C486.013 85.4486 488.796 90.3371 489.984 97.0033H477.405C476.663 93.9665 475.327 91.6704 473.398 90.1149C471.542 88.4854 469.242 87.6707 466.496 87.6707C463.082 87.6707 460.225 88.9669 457.925 91.5592C455.698 94.1516 454.585 97.8551 454.585 102.67Z" fill="white"/>
<path d="M500.347 126.112V50.5623H512.591V98.1143L531.181 79.2268H545.541L524.168 101.447L547.211 126.112H531.515L512.591 105.003V126.112H500.347Z" fill="white"/>
<path d="M591.127 93.1147H579.216C579.142 90.9667 578.325 89.3742 576.767 88.3373C575.283 87.2262 573.279 86.6707 570.756 86.6707C568.604 86.6707 566.86 87.0411 565.524 87.7818C564.262 88.5224 563.632 89.5964 563.632 91.0037C563.632 92.411 564.151 93.5221 565.19 94.3368C566.303 95.1516 568.01 95.8182 570.311 96.3367L581.331 98.7809C584.967 99.5216 587.787 100.929 589.791 103.003C591.869 105.077 592.908 107.965 592.908 111.669C592.908 116.187 591.015 120.002 587.231 123.112C583.446 126.223 578.437 127.779 572.203 127.779C565.895 127.779 560.7 126.223 556.619 123.112C552.611 119.928 550.496 115.854 550.274 110.891H562.407C562.704 113.558 563.743 115.52 565.524 116.78C567.379 118.039 569.754 118.668 572.648 118.668C575.171 118.668 577.138 118.187 578.548 117.224C579.958 116.187 580.663 114.854 580.663 113.224C580.663 111.891 580.144 110.817 579.105 110.002C578.066 109.188 576.619 108.595 574.763 108.225L565.19 106.003C561.183 105.04 557.917 103.447 555.394 101.225C552.945 99.0031 551.721 95.9293 551.721 92.0037C551.721 87.6336 553.428 84.1524 556.841 81.56C560.255 78.8935 564.967 77.5603 570.979 77.5603C576.841 77.5603 581.591 78.8935 585.227 81.56C588.863 84.1524 590.83 88.004 591.127 93.1147Z" fill="white"/>
<path d="M383.36 49.0995L353.75 128.427H344.177L373.787 49.0995H383.36Z" fill="white"/>
<path d="M69.43 79.662L17 56.6637V51.1086L69.43 24.9994V33.6654L27.4637 53.4417L69.43 70.996V79.662Z" fill="white"/>
<path d="M602.57 132.334L644.536 114.891L602.57 95.0034V86.3374L655 112.447V118.002L602.57 141V132.334Z" fill="white"/>
<mask id="path-2-inside-1_24_126" fill="white">
<path fill-rule="evenodd" clip-rule="evenodd" d="M162.801 44.0964C162.293 43.8806 161.706 44.1178 161.49 44.6262L160.765 46.333C160.181 47.7099 158.727 48.4894 157.231 48.4646C155.76 48.4403 154.383 47.6353 153.832 46.2712L153.138 44.5541C152.931 44.0421 152.348 43.7947 151.836 44.0015L143.451 47.3895C142.939 47.5964 142.691 48.1792 142.898 48.6913L143.592 50.4093C144.143 51.773 143.712 53.3083 142.671 54.3474C141.613 55.4039 140.025 55.8534 138.649 55.2691L136.942 54.5444C136.433 54.3286 135.846 54.5658 135.63 55.0742L132.097 63.3993C131.881 63.9077 132.118 64.4947 132.626 64.7105L134.733 65.6046C136.007 66.1455 136.753 67.4674 136.772 68.8515C136.792 70.2939 136.018 71.6628 134.68 72.2032L132.553 73.0626C132.041 73.2694 131.794 73.8523 132.001 74.3643L135.389 82.7498C135.596 83.2619 136.178 83.5093 136.69 83.3024L139.38 82.2158C140.574 81.7332 141.921 82.0886 142.843 82.9882C143.803 83.9253 144.203 85.3504 143.679 86.5856L142.544 89.2588C142.329 89.7672 142.566 90.3542 143.074 90.57L151.399 94.1038C151.908 94.3196 152.495 94.0824 152.711 93.574L154.011 90.511C154.493 89.3738 155.672 88.7057 156.907 88.7041C158.164 88.7025 159.343 89.394 159.814 90.5597L161.062 93.6477C161.269 94.1598 161.851 94.4072 162.364 94.2003L170.749 90.8123C171.261 90.6054 171.508 90.0226 171.302 89.5105L170.054 86.4234C169.583 85.2574 169.951 83.9407 170.857 83.0683C171.747 82.211 173.059 81.8731 174.196 82.3559L177.259 83.6559C177.767 83.8717 178.354 83.6345 178.57 83.1262L182.104 74.8011C182.32 74.2927 182.082 73.7056 181.574 73.4898L178.901 72.3551C177.666 71.8308 176.964 70.5277 177.004 69.1863C177.042 67.8988 177.764 66.7078 178.958 66.2252L181.647 65.1388C182.159 64.9319 182.406 64.3491 182.199 63.8371L178.811 55.4516C178.605 54.9395 178.022 54.6921 177.51 54.899L175.383 55.7581C174.046 56.2985 172.538 55.8516 171.55 54.8002C170.603 53.7912 170.221 52.3221 170.762 51.0478L171.656 48.9415C171.872 48.4331 171.635 47.846 171.126 47.6302L162.801 44.0964ZM156.5 80.9999C163.404 80.9999 169 75.4035 169 68.4999C169 61.5963 163.404 55.9999 156.5 55.9999C149.596 55.9999 144 61.5963 144 68.4999C144 75.4035 149.596 80.9999 156.5 80.9999Z"/>
</mask>
<path fill-rule="evenodd" clip-rule="evenodd" d="M162.801 44.0964C162.293 43.8806 161.706 44.1178 161.49 44.6262L160.765 46.333C160.181 47.7099 158.727 48.4894 157.231 48.4646C155.76 48.4403 154.383 47.6353 153.832 46.2712L153.138 44.5541C152.931 44.0421 152.348 43.7947 151.836 44.0015L143.451 47.3895C142.939 47.5964 142.691 48.1792 142.898 48.6913L143.592 50.4093C144.143 51.773 143.712 53.3083 142.671 54.3474C141.613 55.4039 140.025 55.8534 138.649 55.2691L136.942 54.5444C136.433 54.3286 135.846 54.5658 135.63 55.0742L132.097 63.3993C131.881 63.9077 132.118 64.4947 132.626 64.7105L134.733 65.6046C136.007 66.1455 136.753 67.4674 136.772 68.8515C136.792 70.2939 136.018 71.6628 134.68 72.2032L132.553 73.0626C132.041 73.2694 131.794 73.8523 132.001 74.3643L135.389 82.7498C135.596 83.2619 136.178 83.5093 136.69 83.3024L139.38 82.2158C140.574 81.7332 141.921 82.0886 142.843 82.9882C143.803 83.9253 144.203 85.3504 143.679 86.5856L142.544 89.2588C142.329 89.7672 142.566 90.3542 143.074 90.57L151.399 94.1038C151.908 94.3196 152.495 94.0824 152.711 93.574L154.011 90.511C154.493 89.3738 155.672 88.7057 156.907 88.7041C158.164 88.7025 159.343 89.394 159.814 90.5597L161.062 93.6477C161.269 94.1598 161.851 94.4072 162.364 94.2003L170.749 90.8123C171.261 90.6054 171.508 90.0226 171.302 89.5105L170.054 86.4234C169.583 85.2574 169.951 83.9407 170.857 83.0683C171.747 82.211 173.059 81.8731 174.196 82.3559L177.259 83.6559C177.767 83.8717 178.354 83.6345 178.57 83.1262L182.104 74.8011C182.32 74.2927 182.082 73.7056 181.574 73.4898L178.901 72.3551C177.666 71.8308 176.964 70.5277 177.004 69.1863C177.042 67.8988 177.764 66.7078 178.958 66.2252L181.647 65.1388C182.159 64.9319 182.406 64.3491 182.199 63.8371L178.811 55.4516C178.605 54.9395 178.022 54.6921 177.51 54.899L175.383 55.7581C174.046 56.2985 172.538 55.8516 171.55 54.8002C170.603 53.7912 170.221 52.3221 170.762 51.0478L171.656 48.9415C171.872 48.4331 171.635 47.846 171.126 47.6302L162.801 44.0964ZM156.5 80.9999C163.404 80.9999 169 75.4035 169 68.4999C169 61.5963 163.404 55.9999 156.5 55.9999C149.596 55.9999 144 61.5963 144 68.4999C144 75.4035 149.596 80.9999 156.5 80.9999Z" fill="white"/>
<path d="M161.49 44.6262L155.967 42.2818L155.967 42.2818L161.49 44.6262ZM162.801 44.0964L165.145 38.5734L165.145 38.5734L162.801 44.0964ZM160.765 46.333L155.242 43.9886L155.242 43.9886L160.765 46.333ZM157.231 48.4646L157.33 42.4654L157.231 48.4646ZM153.832 46.2712L159.395 44.0236L159.395 44.0235L153.832 46.2712ZM153.138 44.5541L158.701 42.3065V42.3065L153.138 44.5541ZM151.836 44.0015L154.084 49.5647L154.084 49.5646L151.836 44.0015ZM143.451 47.3895L145.698 52.9526L145.698 52.9526L143.451 47.3895ZM142.898 48.6913L137.335 50.9389L137.335 50.9389L142.898 48.6913ZM143.592 50.4093L149.155 48.1616V48.1616L143.592 50.4093ZM142.671 54.3474L138.432 50.1011L142.671 54.3474ZM138.649 55.2691L140.993 49.7461L140.993 49.7461L138.649 55.2691ZM136.942 54.5444L139.286 49.0214H139.286L136.942 54.5444ZM135.63 55.0742L141.153 57.4186V57.4186L135.63 55.0742ZM132.097 63.3993L126.573 61.0549L126.573 61.0549L132.097 63.3993ZM132.626 64.7105L134.971 59.1875L134.971 59.1875L132.626 64.7105ZM134.733 65.6046L132.388 71.1276H132.388L134.733 65.6046ZM136.772 68.8515L142.771 68.7682L136.772 68.8515ZM134.68 72.2032L136.928 77.7663H136.928L134.68 72.2032ZM132.553 73.0626L130.306 67.4995L130.306 67.4995L132.553 73.0626ZM132.001 74.3643L126.438 76.612L126.438 76.612L132.001 74.3643ZM135.389 82.7498L129.826 84.9975L129.826 84.9975L135.389 82.7498ZM136.69 83.3024L134.443 77.7393L134.443 77.7393L136.69 83.3024ZM139.38 82.2158L137.132 76.6527H137.132L139.38 82.2158ZM142.843 82.9882L138.653 87.2826L138.653 87.2826L142.843 82.9882ZM143.679 86.5856L149.202 88.93L143.679 86.5856ZM142.544 89.2588L137.021 86.9144L137.021 86.9144L142.544 89.2588ZM143.074 90.57L140.73 96.093L140.73 96.093L143.074 90.57ZM151.399 94.1038L153.744 88.5808L153.744 88.5808L151.399 94.1038ZM152.711 93.574L158.234 95.9184L158.234 95.9184L152.711 93.574ZM154.011 90.511L159.534 92.8554L159.534 92.8554L154.011 90.511ZM156.907 88.7041L156.9 82.7041H156.9L156.907 88.7041ZM159.814 90.5597L154.251 92.8073L154.251 92.8073L159.814 90.5597ZM161.062 93.6477L166.625 91.4001L166.625 91.4001L161.062 93.6477ZM162.364 94.2003L164.611 99.7634H164.611L162.364 94.2003ZM170.749 90.8123L168.501 85.2492L168.501 85.2492L170.749 90.8123ZM171.302 89.5105L176.865 87.2629L176.865 87.2629L171.302 89.5105ZM170.054 86.4234L175.617 84.1758L175.617 84.1758L170.054 86.4234ZM170.857 83.0683L166.694 78.7469L166.694 78.7469L170.857 83.0683ZM174.196 82.3559L176.541 76.8329L176.541 76.8329L174.196 82.3559ZM177.259 83.6559L174.914 89.179L174.914 89.179L177.259 83.6559ZM178.57 83.1262L173.047 80.7818L173.047 80.7818L178.57 83.1262ZM182.104 74.8011L187.627 77.1455L187.627 77.1454L182.104 74.8011ZM181.574 73.4898L183.918 67.9668L183.918 67.9668L181.574 73.4898ZM178.901 72.3551L176.557 77.8782H176.557L178.901 72.3551ZM177.004 69.1863L171.006 69.0079V69.0079L177.004 69.1863ZM178.958 66.2252L176.71 60.6621L176.71 60.6621L178.958 66.2252ZM181.647 65.1388L183.894 70.7019L183.895 70.7019L181.647 65.1388ZM182.199 63.8371L187.763 61.5894L187.763 61.5894L182.199 63.8371ZM178.811 55.4516L184.375 53.2039V53.2039L178.811 55.4516ZM177.51 54.899L175.262 49.3359L175.262 49.3359L177.51 54.899ZM175.383 55.7581L173.136 50.195L173.136 50.195L175.383 55.7581ZM171.55 54.8002L167.177 58.9078L167.177 58.9078L171.55 54.8002ZM170.762 51.0478L176.285 53.3922V53.3922L170.762 51.0478ZM171.656 48.9415L177.179 51.2858L177.179 51.2858L171.656 48.9415ZM171.126 47.6302L168.782 53.1533L168.782 53.1533L171.126 47.6302ZM167.013 46.9706C165.934 49.5125 162.999 50.6984 160.457 49.6195L165.145 38.5734C161.587 37.0628 157.477 38.7232 155.967 42.2818L167.013 46.9706ZM166.288 48.6774L167.013 46.9706L155.967 42.2818L155.242 43.9886L166.288 48.6774ZM157.132 54.4638C160.589 54.521 164.574 52.7164 166.288 48.6774L155.242 43.9886C155.505 43.3696 155.937 42.9631 156.316 42.7422C156.676 42.5322 157.025 42.4604 157.33 42.4654L157.132 54.4638ZM148.269 48.5188C149.866 52.4714 153.658 54.4063 157.132 54.4638L157.33 42.4654C157.862 42.4742 158.9 42.7991 159.395 44.0236L148.269 48.5188ZM147.575 46.8018L148.269 48.5188L159.395 44.0235L158.701 42.3065L147.575 46.8018ZM154.084 49.5646C151.524 50.5991 148.609 49.3621 147.575 46.8018L158.701 42.3065C157.253 38.722 153.173 36.9902 149.589 38.4384L154.084 49.5646ZM145.698 52.9526L154.084 49.5647L149.589 38.4384L141.203 41.8264L145.698 52.9526ZM148.461 46.4437C149.496 49.004 148.259 51.9182 145.698 52.9526L141.203 41.8264C137.619 43.2746 135.887 47.3544 137.335 50.9389L148.461 46.4437ZM149.155 48.1616L148.461 46.4437L137.335 50.9389L138.029 52.6569L149.155 48.1616ZM146.91 58.5938C149.369 56.1394 150.752 52.1137 149.155 48.1616L138.029 52.6569C137.534 51.4323 138.055 50.4772 138.432 50.1011L146.91 58.5938ZM136.304 60.7921C140.343 62.5064 144.463 61.0369 146.91 58.5938L138.432 50.1011C138.648 49.8852 138.95 49.6941 139.355 49.5952C139.781 49.491 140.374 49.4833 140.993 49.7461L136.304 60.7921ZM134.597 60.0675L136.304 60.7921L140.993 49.7461L139.286 49.0214L134.597 60.0675ZM141.153 57.4186C140.074 59.9605 137.139 61.1464 134.597 60.0675L139.286 49.0214C135.727 47.5108 131.618 49.1712 130.107 52.7298L141.153 57.4186ZM137.62 65.7437L141.153 57.4186L130.107 52.7298L126.573 61.0549L137.62 65.7437ZM134.971 59.1875C137.513 60.2665 138.699 63.2018 137.62 65.7437L126.573 61.0549C125.063 64.6136 126.723 68.723 130.282 70.2336L134.971 59.1875ZM137.077 60.0816L134.971 59.1875L130.282 70.2336L132.388 71.1276L137.077 60.0816ZM142.771 68.7682C142.725 65.4424 140.914 61.7105 137.077 60.0816L132.388 71.1276C131.099 70.5805 130.78 69.4923 130.773 68.9348L142.771 68.7682ZM136.928 77.7663C140.917 76.1545 142.82 72.2791 142.771 68.7682L130.773 68.9348C130.764 68.3086 131.118 67.1711 132.433 66.6401L136.928 77.7663ZM134.801 78.6257L136.928 77.7663L132.433 66.6401L130.306 67.4995L134.801 78.6257ZM137.564 72.1167C138.598 74.677 137.361 77.5912 134.801 78.6257L130.306 67.4995C126.721 68.9477 124.989 73.0275 126.438 76.612L137.564 72.1167ZM140.952 80.5022L137.564 72.1167L126.438 76.612L129.826 84.9975L140.952 80.5022ZM134.443 77.7393C137.003 76.7048 139.917 77.9419 140.952 80.5022L129.826 84.9975C131.274 88.5819 135.354 90.3138 138.938 88.8655L134.443 77.7393ZM137.132 76.6527L134.443 77.7393L138.938 88.8655L141.628 87.7789L137.132 76.6527ZM147.033 78.6937C144.658 76.3765 140.842 75.1538 137.132 76.6527L141.628 87.7789C140.306 88.3127 139.184 87.8007 138.653 87.2826L147.033 78.6937ZM149.202 88.93C150.851 85.0449 149.454 81.0557 147.033 78.6937L138.653 87.2826C138.153 86.7949 137.556 85.6559 138.156 84.2412L149.202 88.93ZM148.067 91.6032L149.202 88.93L138.156 84.2412L137.021 86.9144L148.067 91.6032ZM145.419 85.047C147.961 86.126 149.146 89.0612 148.067 91.6032L137.021 86.9144C135.511 90.4731 137.171 94.5825 140.73 96.093L145.419 85.047ZM153.744 88.5808L145.419 85.047L140.73 96.093L149.055 99.6268L153.744 88.5808ZM147.188 91.2296C148.266 88.6878 151.202 87.5018 153.744 88.5808L149.055 99.6268C152.614 101.137 156.723 99.4771 158.234 95.9184L147.188 91.2296ZM148.488 88.1666L147.188 91.2296L158.234 95.9184L159.534 92.8554L148.488 88.1666ZM156.9 82.7041C153.648 82.7082 150.053 84.4781 148.488 88.1666L159.534 92.8554C158.933 94.2696 157.695 94.7031 156.915 94.7041L156.9 82.7041ZM165.377 88.312C163.864 84.5678 160.255 82.6999 156.9 82.7041L156.914 94.7041C156.074 94.7052 154.822 94.2202 154.251 92.8073L165.377 88.312ZM166.625 91.4001L165.377 88.312L154.251 92.8073L155.499 95.8954L166.625 91.4001ZM160.116 88.6372C162.676 87.6028 165.59 88.8397 166.625 91.4001L155.499 95.8954C156.947 99.4799 161.027 101.212 164.611 99.7634L160.116 88.6372ZM168.501 85.2492L160.116 88.6372L164.611 99.7634L172.997 96.3754L168.501 85.2492ZM165.738 91.7582C164.704 89.1979 165.941 86.2837 168.501 85.2492L172.997 96.3754C176.581 94.9272 178.313 90.8474 176.865 87.2629L165.738 91.7582ZM164.491 88.671L165.738 91.7582L176.865 87.2629L175.617 84.1758L164.491 88.671ZM166.694 78.7469C164.277 81.075 162.978 84.9263 164.491 88.6711L175.617 84.1758C176.188 85.5884 175.625 86.8065 175.019 87.3896L166.694 78.7469ZM176.541 76.8329C172.852 75.2671 169.036 76.4913 166.694 78.7469L175.019 87.3896C174.458 87.9307 173.266 88.4791 171.852 87.879L176.541 76.8329ZM179.603 78.1329L176.541 76.8329L171.852 87.879L174.914 89.179L179.603 78.1329ZM173.047 80.7818C174.126 78.2399 177.061 77.0539 179.603 78.1329L174.914 89.179C178.473 90.6895 182.583 89.0292 184.093 85.4705L173.047 80.7818ZM176.581 72.4567L173.047 80.7818L184.093 85.4705L187.627 77.1455L176.581 72.4567ZM179.23 79.0129C176.688 77.9339 175.502 74.9986 176.581 72.4567L187.627 77.1454C189.137 73.5868 187.477 69.4774 183.918 67.9668L179.23 79.0129ZM176.557 77.8782L179.23 79.0129L183.918 67.9668L181.245 66.8321L176.557 77.8782ZM171.006 69.0079C170.906 72.3886 172.671 76.229 176.557 77.8782L181.245 66.8321C182.66 67.4326 183.022 68.6667 183.001 69.3648L171.006 69.0079ZM176.71 60.6621C173 62.161 171.105 65.6913 171.006 69.0079L183.001 69.3648C182.979 70.1063 182.527 71.2545 181.206 71.7883L176.71 60.6621ZM179.399 59.5757L176.71 60.6621L181.206 71.7883L183.894 70.7019L179.399 59.5757ZM176.636 66.0847C175.602 63.5243 176.839 60.6102 179.399 59.5757L183.895 70.7019C187.479 69.2537 189.211 65.1739 187.763 61.5894L176.636 66.0847ZM173.248 57.6992L176.636 66.0847L187.763 61.5894L184.375 53.2039L173.248 57.6992ZM179.757 60.4621C177.197 61.4965 174.283 60.2595 173.248 57.6992L184.375 53.2039C182.926 49.6194 178.847 47.8877 175.262 49.3359L179.757 60.4621ZM177.631 61.3212L179.757 60.4621L175.262 49.3359L173.136 50.195L177.631 61.3212ZM167.177 58.9078C169.581 61.4672 173.641 62.933 177.631 61.3212L173.136 50.195C174.45 49.664 175.495 50.2361 175.924 50.6925L167.177 58.9078ZM165.239 48.7035C163.61 52.5409 164.9 56.4833 167.177 58.9078L175.924 50.6925C176.306 51.099 176.832 52.1033 176.285 53.3922L165.239 48.7035ZM166.133 46.5971L165.239 48.7035L176.285 53.3922L177.179 51.2858L166.133 46.5971ZM168.782 53.1533C166.24 52.0743 165.054 49.139 166.133 46.5971L177.179 51.2858C178.69 47.7272 177.029 43.6178 173.471 42.1072L168.782 53.1533ZM160.457 49.6195L168.782 53.1533L173.471 42.1072L165.145 38.5734L160.457 49.6195ZM163 68.4999C163 72.0898 160.09 74.9999 156.5 74.9999V86.9999C166.717 86.9999 175 78.7172 175 68.4999H163ZM156.5 61.9999C160.09 61.9999 163 64.9101 163 68.4999H175C175 58.2826 166.717 49.9999 156.5 49.9999V61.9999ZM150 68.4999C150 64.9101 152.91 61.9999 156.5 61.9999V49.9999C146.283 49.9999 138 58.2826 138 68.4999H150ZM156.5 74.9999C152.91 74.9999 150 72.0898 150 68.4999H138C138 78.7172 146.283 86.9999 156.5 86.9999V74.9999Z" fill="white" mask="url(#path-2-inside-1_24_126)"/>
<mask id="path-4-outside-2_24_126" maskUnits="userSpaceOnUse" x="0" y="0" width="672" height="158" fill="black">
<rect fill="white" width="672" height="158"/>
<path d="M101.257 92.5499V63.8854L76.6562 22.5551H90.7934L107.602 51.8863L124.745 22.5551H138.214L113.613 63.7743V92.5499H101.257Z"/>
<path d="M205.439 45.6645V72.4403C205.439 76.0697 206.144 78.8102 207.554 80.6619C208.964 82.5136 211.116 83.4395 214.01 83.4395C217.053 83.4395 219.576 82.2174 221.58 79.7731C223.583 77.3288 224.585 73.5884 224.585 68.5517V45.6645H236.719V92.5499H224.585V84.3283C222.953 87.6614 220.763 90.1427 218.018 91.7722C215.346 93.4017 212.452 94.2165 209.335 94.2165C204.511 94.2165 200.615 92.624 197.647 89.439C194.678 86.18 193.194 81.6248 193.194 75.7734V45.6645H205.439Z"/>
<path d="M244.93 55.6638V45.6645H256.729V26.777H268.863V45.6645H284.67V55.6638H268.863V74.6624C268.863 77.7732 269.531 79.9953 270.867 81.3285C272.202 82.5877 274.243 83.2173 276.989 83.2173C278.251 83.2173 279.549 83.1432 280.885 82.9951C282.221 82.7729 283.482 82.5136 284.67 82.2174V93.3276C283.111 93.6239 281.516 93.8461 279.883 93.9943C278.251 94.1424 276.692 94.2165 275.208 94.2165C268.974 94.2165 264.336 92.7721 261.293 89.8835C258.251 86.9207 256.729 82.2544 256.729 75.8845V55.6638H244.93Z"/>
<path d="M295.615 92.5499V17H307.859V53.9972C309.492 50.6642 311.681 48.1829 314.427 46.5533C317.247 44.8498 320.364 43.998 323.778 43.998C329.047 43.998 333.239 45.8497 336.356 49.5531C339.547 53.1825 341.143 58.3302 341.143 64.9964V92.5499H329.009V66.9963C329.009 62.9966 328.23 59.9227 326.672 57.7747C325.188 55.6267 322.813 54.5528 319.548 54.5528C316.06 54.5528 313.24 55.7379 311.087 58.108C308.935 60.4042 307.859 63.9965 307.859 68.885V92.5499H295.615Z"/>
<path d="M380.921 102.67C380.921 98.6698 381.514 95.1145 382.702 92.0037C383.963 88.8187 385.596 86.1893 387.6 84.1154C389.678 81.9674 392.015 80.3379 394.613 79.2268C397.21 78.1158 399.845 77.5603 402.516 77.5603C405.707 77.5603 408.787 78.338 411.755 79.8935C414.724 81.4489 417.136 83.8191 418.991 87.004V79.2268H431.124V126.112H418.991V118.335C417.136 121.52 414.724 123.89 411.755 125.446C408.787 127.001 405.707 127.779 402.516 127.779C399.845 127.779 397.21 127.223 394.613 126.112C392.015 125.001 389.678 123.409 387.6 121.335C385.596 119.187 383.963 116.557 382.702 113.447C381.514 110.262 380.921 106.669 380.921 102.67ZM405.856 88.1151C401.997 88.1151 398.917 89.5224 396.616 92.337C394.39 95.1516 393.277 98.5958 393.277 102.67C393.277 106.743 394.39 110.188 396.616 113.002C398.917 115.817 401.997 117.224 405.856 117.224C409.64 117.224 412.794 115.965 415.317 113.447C417.915 110.854 419.214 107.262 419.214 102.67C419.214 98.0773 417.915 94.522 415.317 92.0037C412.794 89.4113 409.64 88.1151 405.856 88.1151Z"/>
<path d="M454.585 102.67C454.585 107.484 455.698 111.187 457.925 113.78C460.225 116.372 463.082 117.668 466.496 117.668C469.168 117.668 471.431 116.928 473.286 115.446C475.216 113.891 476.589 111.632 477.405 108.669H489.984C488.722 115.187 485.902 120.002 481.524 123.112C477.145 126.223 472.247 127.779 466.83 127.779C463.49 127.779 460.299 127.223 457.257 126.112C454.288 124.927 451.691 123.298 449.465 121.224C447.238 119.076 445.457 116.446 444.121 113.335C442.86 110.15 442.229 106.595 442.229 102.67C442.229 98.7439 442.86 95.2256 444.121 92.1148C445.457 89.0039 447.238 86.3745 449.465 84.2265C451.691 82.0785 454.288 80.449 457.257 79.3379C460.299 78.1528 463.49 77.5603 466.83 77.5603C472.322 77.5603 477.257 79.1528 481.635 82.3377C486.013 85.4486 488.796 90.3371 489.984 97.0033H477.405C476.663 93.9665 475.327 91.6704 473.398 90.1149C471.542 88.4854 469.242 87.6707 466.496 87.6707C463.082 87.6707 460.225 88.9669 457.925 91.5592C455.698 94.1516 454.585 97.8551 454.585 102.67Z"/>
<path d="M500.347 126.112V50.5623H512.591V98.1143L531.181 79.2268H545.541L524.168 101.447L547.211 126.112H531.515L512.591 105.003V126.112H500.347Z"/>
<path d="M591.127 93.1147H579.216C579.142 90.9667 578.325 89.3742 576.767 88.3373C575.283 87.2262 573.279 86.6707 570.756 86.6707C568.604 86.6707 566.86 87.0411 565.524 87.7818C564.262 88.5224 563.632 89.5964 563.632 91.0037C563.632 92.411 564.151 93.5221 565.19 94.3368C566.303 95.1516 568.01 95.8182 570.311 96.3367L581.331 98.7809C584.967 99.5216 587.787 100.929 589.791 103.003C591.869 105.077 592.908 107.965 592.908 111.669C592.908 116.187 591.015 120.002 587.231 123.112C583.446 126.223 578.437 127.779 572.203 127.779C565.895 127.779 560.7 126.223 556.619 123.112C552.611 119.928 550.496 115.854 550.274 110.891H562.407C562.704 113.558 563.743 115.52 565.524 116.78C567.379 118.039 569.754 118.668 572.648 118.668C575.171 118.668 577.138 118.187 578.548 117.224C579.958 116.187 580.663 114.854 580.663 113.224C580.663 111.891 580.144 110.817 579.105 110.002C578.066 109.188 576.619 108.595 574.763 108.225L565.19 106.003C561.183 105.04 557.917 103.447 555.394 101.225C552.945 99.0031 551.721 95.9293 551.721 92.0037C551.721 87.6336 553.428 84.1524 556.841 81.56C560.255 78.8935 564.967 77.5603 570.979 77.5603C576.841 77.5603 581.591 78.8935 585.227 81.56C588.863 84.1524 590.83 88.004 591.127 93.1147Z"/>
<path d="M383.36 49.0995L353.75 128.427H344.177L373.787 49.0995H383.36Z"/>
<path d="M69.43 79.662L17 56.6637V51.1086L69.43 24.9994V33.6654L27.4637 53.4417L69.43 70.996V79.662Z"/>
<path d="M602.57 132.334L644.536 114.891L602.57 95.0034V86.3374L655 112.447V118.002L602.57 141V132.334Z"/>
<path fill-rule="evenodd" clip-rule="evenodd" d="M162.801 44.0965C162.293 43.8807 161.706 44.1179 161.49 44.6263L160.765 46.3331C160.181 47.71 158.727 48.4895 157.231 48.4647C155.76 48.4404 154.383 47.6354 153.832 46.2713L153.138 44.5542C152.931 44.0422 152.348 43.7948 151.836 44.0016L143.451 47.3896C142.939 47.5965 142.691 48.1793 142.898 48.6914L143.592 50.4094C144.143 51.7731 143.712 53.3084 142.671 54.3475C141.613 55.404 140.025 55.8535 138.649 55.2692L136.942 54.5445C136.433 54.3287 135.846 54.5659 135.63 55.0743L132.097 63.3994C131.881 63.9078 132.118 64.4948 132.626 64.7106L134.733 65.6047C136.007 66.1456 136.753 67.4675 136.772 68.8516C136.792 70.294 136.018 71.6629 134.68 72.2033L132.553 73.0626C132.041 73.2695 131.794 73.8524 132.001 74.3644L135.389 82.7499C135.596 83.262 136.178 83.5094 136.69 83.3025L139.38 82.2159C140.574 81.7333 141.921 82.0887 142.843 82.9883C143.803 83.9254 144.203 85.3505 143.679 86.5857L142.544 89.2589C142.329 89.7673 142.566 90.3543 143.074 90.5701L151.399 94.1039C151.908 94.3197 152.495 94.0825 152.711 93.5741L154.011 90.5111C154.493 89.3739 155.672 88.7057 156.907 88.7042C158.164 88.7026 159.343 89.3941 159.814 90.5597L161.062 93.6478C161.269 94.1599 161.851 94.4073 162.364 94.2004L170.749 90.8124C171.261 90.6055 171.508 90.0227 171.302 89.5106L170.054 86.4235C169.583 85.2575 169.951 83.9408 170.857 83.0684C171.747 82.2111 173.059 81.8732 174.196 82.356L177.259 83.656C177.767 83.8718 178.354 83.6346 178.57 83.1263L182.104 74.8012C182.32 74.2928 182.082 73.7057 181.574 73.4899L178.901 72.3552C177.666 71.8309 176.964 70.5278 177.004 69.1864C177.042 67.8989 177.764 66.7079 178.958 66.2253L181.647 65.1389C182.159 64.932 182.406 64.3492 182.199 63.8371L178.811 55.4517C178.605 54.9396 178.022 54.6922 177.51 54.8991L175.383 55.7582C174.046 56.2986 172.538 55.8517 171.55 54.8003C170.603 53.7912 170.221 52.3222 170.762 51.0479L171.656 48.9416C171.872 48.4332 171.635 47.8461 171.126 47.6303L162.801 44.0965ZM156.5 81C163.404 81 169 75.4036 169 68.5C169 61.5964 163.404 56 156.5 56C149.596 56 144 61.5964 144 68.5C144 75.4036 149.596 81 156.5 81Z"/>
</mask>
<path d="M101.257 92.5499V63.8854L76.6562 22.5551H90.7934L107.602 51.8863L124.745 22.5551H138.214L113.613 63.7743V92.5499H101.257Z" stroke="black" stroke-width="34" stroke-linejoin="round" mask="url(#path-4-outside-2_24_126)"/>
<path d="M205.439 45.6645V72.4403C205.439 76.0697 206.144 78.8102 207.554 80.6619C208.964 82.5136 211.116 83.4395 214.01 83.4395C217.053 83.4395 219.576 82.2174 221.58 79.7731C223.583 77.3288 224.585 73.5884 224.585 68.5517V45.6645H236.719V92.5499H224.585V84.3283C222.953 87.6614 220.763 90.1427 218.018 91.7722C215.346 93.4017 212.452 94.2165 209.335 94.2165C204.511 94.2165 200.615 92.624 197.647 89.439C194.678 86.18 193.194 81.6248 193.194 75.7734V45.6645H205.439Z" stroke="black" stroke-width="34" stroke-linejoin="round" mask="url(#path-4-outside-2_24_126)"/>
<path d="M244.93 55.6638V45.6645H256.729V26.777H268.863V45.6645H284.67V55.6638H268.863V74.6624C268.863 77.7732 269.531 79.9953 270.867 81.3285C272.202 82.5877 274.243 83.2173 276.989 83.2173C278.251 83.2173 279.549 83.1432 280.885 82.9951C282.221 82.7729 283.482 82.5136 284.67 82.2174V93.3276C283.111 93.6239 281.516 93.8461 279.883 93.9943C278.251 94.1424 276.692 94.2165 275.208 94.2165C268.974 94.2165 264.336 92.7721 261.293 89.8835C258.251 86.9207 256.729 82.2544 256.729 75.8845V55.6638H244.93Z" stroke="black" stroke-width="34" stroke-linejoin="round" mask="url(#path-4-outside-2_24_126)"/>
<path d="M295.615 92.5499V17H307.859V53.9972C309.492 50.6642 311.681 48.1829 314.427 46.5533C317.247 44.8498 320.364 43.998 323.778 43.998C329.047 43.998 333.239 45.8497 336.356 49.5531C339.547 53.1825 341.143 58.3302 341.143 64.9964V92.5499H329.009V66.9963C329.009 62.9966 328.23 59.9227 326.672 57.7747C325.188 55.6267 322.813 54.5528 319.548 54.5528C316.06 54.5528 313.24 55.7379 311.087 58.108C308.935 60.4042 307.859 63.9965 307.859 68.885V92.5499H295.615Z" stroke="black" stroke-width="34" stroke-linejoin="round" mask="url(#path-4-outside-2_24_126)"/>
<path d="M380.921 102.67C380.921 98.6698 381.514 95.1145 382.702 92.0037C383.963 88.8187 385.596 86.1893 387.6 84.1154C389.678 81.9674 392.015 80.3379 394.613 79.2268C397.21 78.1158 399.845 77.5603 402.516 77.5603C405.707 77.5603 408.787 78.338 411.755 79.8935C414.724 81.4489 417.136 83.8191 418.991 87.004V79.2268H431.124V126.112H418.991V118.335C417.136 121.52 414.724 123.89 411.755 125.446C408.787 127.001 405.707 127.779 402.516 127.779C399.845 127.779 397.21 127.223 394.613 126.112C392.015 125.001 389.678 123.409 387.6 121.335C385.596 119.187 383.963 116.557 382.702 113.447C381.514 110.262 380.921 106.669 380.921 102.67ZM405.856 88.1151C401.997 88.1151 398.917 89.5224 396.616 92.337C394.39 95.1516 393.277 98.5958 393.277 102.67C393.277 106.743 394.39 110.188 396.616 113.002C398.917 115.817 401.997 117.224 405.856 117.224C409.64 117.224 412.794 115.965 415.317 113.447C417.915 110.854 419.214 107.262 419.214 102.67C419.214 98.0773 417.915 94.522 415.317 92.0037C412.794 89.4113 409.64 88.1151 405.856 88.1151Z" stroke="black" stroke-width="34" stroke-linejoin="round" mask="url(#path-4-outside-2_24_126)"/>
<path d="M454.585 102.67C454.585 107.484 455.698 111.187 457.925 113.78C460.225 116.372 463.082 117.668 466.496 117.668C469.168 117.668 471.431 116.928 473.286 115.446C475.216 113.891 476.589 111.632 477.405 108.669H489.984C488.722 115.187 485.902 120.002 481.524 123.112C477.145 126.223 472.247 127.779 466.83 127.779C463.49 127.779 460.299 127.223 457.257 126.112C454.288 124.927 451.691 123.298 449.465 121.224C447.238 119.076 445.457 116.446 444.121 113.335C442.86 110.15 442.229 106.595 442.229 102.67C442.229 98.7439 442.86 95.2256 444.121 92.1148C445.457 89.0039 447.238 86.3745 449.465 84.2265C451.691 82.0785 454.288 80.449 457.257 79.3379C460.299 78.1528 463.49 77.5603 466.83 77.5603C472.322 77.5603 477.257 79.1528 481.635 82.3377C486.013 85.4486 488.796 90.3371 489.984 97.0033H477.405C476.663 93.9665 475.327 91.6704 473.398 90.1149C471.542 88.4854 469.242 87.6707 466.496 87.6707C463.082 87.6707 460.225 88.9669 457.925 91.5592C455.698 94.1516 454.585 97.8551 454.585 102.67Z" stroke="black" stroke-width="34" stroke-linejoin="round" mask="url(#path-4-outside-2_24_126)"/>
<path d="M500.347 126.112V50.5623H512.591V98.1143L531.181 79.2268H545.541L524.168 101.447L547.211 126.112H531.515L512.591 105.003V126.112H500.347Z" stroke="black" stroke-width="34" stroke-linejoin="round" mask="url(#path-4-outside-2_24_126)"/>
<path d="M591.127 93.1147H579.216C579.142 90.9667 578.325 89.3742 576.767 88.3373C575.283 87.2262 573.279 86.6707 570.756 86.6707C568.604 86.6707 566.86 87.0411 565.524 87.7818C564.262 88.5224 563.632 89.5964 563.632 91.0037C563.632 92.411 564.151 93.5221 565.19 94.3368C566.303 95.1516 568.01 95.8182 570.311 96.3367L581.331 98.7809C584.967 99.5216 587.787 100.929 589.791 103.003C591.869 105.077 592.908 107.965 592.908 111.669C592.908 116.187 591.015 120.002 587.231 123.112C583.446 126.223 578.437 127.779 572.203 127.779C565.895 127.779 560.7 126.223 556.619 123.112C552.611 119.928 550.496 115.854 550.274 110.891H562.407C562.704 113.558 563.743 115.52 565.524 116.78C567.379 118.039 569.754 118.668 572.648 118.668C575.171 118.668 577.138 118.187 578.548 117.224C579.958 116.187 580.663 114.854 580.663 113.224C580.663 111.891 580.144 110.817 579.105 110.002C578.066 109.188 576.619 108.595 574.763 108.225L565.19 106.003C561.183 105.04 557.917 103.447 555.394 101.225C552.945 99.0031 551.721 95.9293 551.721 92.0037C551.721 87.6336 553.428 84.1524 556.841 81.56C560.255 78.8935 564.967 77.5603 570.979 77.5603C576.841 77.5603 581.591 78.8935 585.227 81.56C588.863 84.1524 590.83 88.004 591.127 93.1147Z" stroke="black" stroke-width="34" stroke-linejoin="round" mask="url(#path-4-outside-2_24_126)"/>
<path d="M383.36 49.0995L353.75 128.427H344.177L373.787 49.0995H383.36Z" stroke="black" stroke-width="34" stroke-linejoin="round" mask="url(#path-4-outside-2_24_126)"/>
<path d="M69.43 79.662L17 56.6637V51.1086L69.43 24.9994V33.6654L27.4637 53.4417L69.43 70.996V79.662Z" stroke="black" stroke-width="34" stroke-linejoin="round" mask="url(#path-4-outside-2_24_126)"/>
<path d="M602.57 132.334L644.536 114.891L602.57 95.0034V86.3374L655 112.447V118.002L602.57 141V132.334Z" stroke="black" stroke-width="34" stroke-linejoin="round" mask="url(#path-4-outside-2_24_126)"/>
<path fill-rule="evenodd" clip-rule="evenodd" d="M162.801 44.0965C162.293 43.8807 161.706 44.1179 161.49 44.6263L160.765 46.3331C160.181 47.71 158.727 48.4895 157.231 48.4647C155.76 48.4404 154.383 47.6354 153.832 46.2713L153.138 44.5542C152.931 44.0422 152.348 43.7948 151.836 44.0016L143.451 47.3896C142.939 47.5965 142.691 48.1793 142.898 48.6914L143.592 50.4094C144.143 51.7731 143.712 53.3084 142.671 54.3475C141.613 55.404 140.025 55.8535 138.649 55.2692L136.942 54.5445C136.433 54.3287 135.846 54.5659 135.63 55.0743L132.097 63.3994C131.881 63.9078 132.118 64.4948 132.626 64.7106L134.733 65.6047C136.007 66.1456 136.753 67.4675 136.772 68.8516C136.792 70.294 136.018 71.6629 134.68 72.2033L132.553 73.0626C132.041 73.2695 131.794 73.8524 132.001 74.3644L135.389 82.7499C135.596 83.262 136.178 83.5094 136.69 83.3025L139.38 82.2159C140.574 81.7333 141.921 82.0887 142.843 82.9883C143.803 83.9254 144.203 85.3505 143.679 86.5857L142.544 89.2589C142.329 89.7673 142.566 90.3543 143.074 90.5701L151.399 94.1039C151.908 94.3197 152.495 94.0825 152.711 93.5741L154.011 90.5111C154.493 89.3739 155.672 88.7057 156.907 88.7042C158.164 88.7026 159.343 89.3941 159.814 90.5597L161.062 93.6478C161.269 94.1599 161.851 94.4073 162.364 94.2004L170.749 90.8124C171.261 90.6055 171.508 90.0227 171.302 89.5106L170.054 86.4235C169.583 85.2575 169.951 83.9408 170.857 83.0684C171.747 82.2111 173.059 81.8732 174.196 82.356L177.259 83.656C177.767 83.8718 178.354 83.6346 178.57 83.1263L182.104 74.8012C182.32 74.2928 182.082 73.7057 181.574 73.4899L178.901 72.3552C177.666 71.8309 176.964 70.5278 177.004 69.1864C177.042 67.8989 177.764 66.7079 178.958 66.2253L181.647 65.1389C182.159 64.932 182.406 64.3492 182.199 63.8371L178.811 55.4517C178.605 54.9396 178.022 54.6922 177.51 54.8991L175.383 55.7582C174.046 56.2986 172.538 55.8517 171.55 54.8003C170.603 53.7912 170.221 52.3222 170.762 51.0479L171.656 48.9416C171.872 48.4332 171.635 47.8461 171.126 47.6303L162.801 44.0965ZM156.5 81C163.404 81 169 75.4036 169 68.5C169 61.5964 163.404 56 156.5 56C149.596 56 144 61.5964 144 68.5C144 75.4036 149.596 81 156.5 81Z" stroke="black" stroke-width="34" stroke-linejoin="round" mask="url(#path-4-outside-2_24_126)"/>
<path d="M162 68.5C162 71.5376 159.538 74 156.5 74C153.462 74 151 71.5376 151 68.5C151 65.4624 153.462 63 156.5 63C159.538 63 162 65.4624 162 68.5Z" fill="black"/>
<path d="M411 102.5C411 106.09 408.761 109 406 109C403.239 109 401 106.09 401 102.5C401 98.9101 403.239 96 406 96C408.761 96 411 98.9101 411 102.5Z" fill="black"/>
<path d="M624 113.688L599 124V102L624 113.688Z" fill="black"/>
<path d="M53 53.3125L78 43V65L53 53.3125Z" fill="black"/>
<path d="M599 124H598.5V124.747L599.191 124.462L599 124ZM624 113.688L624.191 114.15L625.242 113.716L624.212 113.235L624 113.688ZM599 102L599.212 101.547L598.5 101.214V102H599ZM78 43H78.5V42.2529L77.8093 42.5378L78 43ZM53 53.3125L52.8093 52.8503L51.7582 53.2839L52.7882 53.7654L53 53.3125ZM78 65L77.7882 65.4529L78.5 65.7857V65H78ZM161.5 68.5C161.5 71.2614 159.261 73.5 156.5 73.5V74.5C159.814 74.5 162.5 71.8137 162.5 68.5H161.5ZM156.5 73.5C153.739 73.5 151.5 71.2614 151.5 68.5H150.5C150.5 71.8137 153.186 74.5 156.5 74.5V73.5ZM151.5 68.5C151.5 65.7386 153.739 63.5 156.5 63.5V62.5C153.186 62.5 150.5 65.1863 150.5 68.5H151.5ZM156.5 63.5C159.261 63.5 161.5 65.7386 161.5 68.5H162.5C162.5 65.1863 159.814 62.5 156.5 62.5V63.5ZM410.5 102.5C410.5 104.194 409.971 105.71 409.139 106.791C408.308 107.872 407.193 108.5 406 108.5V109.5C407.568 109.5 408.954 108.673 409.932 107.401C410.909 106.13 411.5 104.396 411.5 102.5H410.5ZM406 108.5C404.807 108.5 403.692 107.872 402.861 106.791C402.029 105.71 401.5 104.194 401.5 102.5H400.5C400.5 104.396 401.091 106.13 402.068 107.401C403.046 108.673 404.432 109.5 406 109.5V108.5ZM401.5 102.5C401.5 100.806 402.029 99.2903 402.861 98.2087C403.692 97.1276 404.807 96.5 406 96.5V95.5C404.432 95.5 403.046 96.3275 402.068 97.5989C401.091 98.8699 400.5 100.604 400.5 102.5H401.5ZM406 96.5C407.193 96.5 408.308 97.1276 409.139 98.2087C409.971 99.2903 410.5 100.806 410.5 102.5H411.5C411.5 100.604 410.909 98.8699 409.932 97.5989C408.954 96.3275 407.568 95.5 406 95.5V96.5ZM599.191 124.462L624.191 114.15L623.809 113.225L598.809 123.538L599.191 124.462ZM624.212 113.235L599.212 101.547L598.788 102.453L623.788 114.14L624.212 113.235ZM599.5 124V102H598.5V124H599.5ZM77.8093 42.5378L52.8093 52.8503L53.1907 53.7747L78.1907 43.4622L77.8093 42.5378ZM52.7882 53.7654L77.7882 65.4529L78.2118 64.5471L53.2118 52.8596L52.7882 53.7654ZM77.5 43V65H78.5V43H77.5Z" fill="black"/>
</svg>
