<svg width="916" height="201" viewBox="0 0 916 201" fill="none" xmlns="http://www.w3.org/2000/svg">
<path d="M572.126 151.94C570.761 155.439 568.499 158.084 565.342 159.876C562.27 161.668 558.771 162.564 554.846 162.564C550.75 162.564 547.55 161.711 545.246 160.004C542.942 158.297 541.79 155.993 541.79 153.092C541.79 150.532 542.729 148.399 544.606 146.692C546.484 144.9 550.153 144.004 555.614 144.004H572.126V151.94Z" fill="#2C3D9C"/>
<path d="M214.665 67.3184C224.788 67.3186 232.994 75.5252 232.994 85.6484C232.994 95.7713 224.788 103.978 214.665 103.979C204.542 103.978 196.335 95.7714 196.335 85.6484C196.335 75.5252 204.542 67.3185 214.665 67.3184Z" fill="#2C3D9C"/>
<path fill-rule="evenodd" clip-rule="evenodd" d="M417.254 0.0117188C432.948 0.409507 446.037 11.2877 449.784 25.9092C457.818 26.2258 465.838 28.0154 473.402 31.7617L473.403 31.7607C473.441 31.779 473.477 31.7981 473.515 31.8164C473.54 31.8289 473.565 31.841 473.59 31.8535C481.145 35.5953 487.326 40.9948 492.025 47.5996C497.163 35.2666 509.244 27.1357 522.729 27.1357L523.265 27.1396C545.897 27.4888 561.641 49.9377 554.123 71.3984L551.862 77.8506C553.576 77.7488 555.297 77.6963 557.022 77.6963C570.96 77.6964 585.75 81.0777 597.54 91.5576C597.774 91.7621 598.004 91.9675 598.231 92.1748C601.349 89.5848 604.742 87.3038 608.382 85.3438L608.455 85.3037L608.529 85.2646C618.44 80.0088 629.195 77.6963 640.146 77.6963C645.706 77.6963 651.257 78.3174 656.678 79.6904C659.777 63.8186 673.756 51.8398 690.535 51.8398L691.426 51.8516C707.906 52.2692 721.512 64.2443 724.446 79.9746C727.634 78.9812 730.978 78.4639 734.373 78.4639L735.066 78.4707C742.59 78.6131 749.138 81.071 754.359 84.9971C756.351 83.9313 758.395 83.0018 760.47 82.1982C768.761 78.9355 777.507 77.6963 786.105 77.6963C792.692 77.6963 799.236 78.4291 805.706 79.8408C808.835 80.5235 811.949 81.388 814.992 82.4814C819.404 84.0665 823.045 86.305 825.983 88.9834C832.945 86.5539 840.829 86.4378 848.499 89.416L892.648 106.559C906.725 112.024 916 125.575 916 140.676C916 155.777 906.725 169.327 892.648 174.793L848.499 191.936C838.871 195.674 828.908 194.537 820.854 190.068C817.097 192.712 813.082 194.771 809.021 196.351L808.822 196.428L808.621 196.502C800.327 199.574 791.546 200.712 782.905 200.712C774.921 200.712 767.054 199.695 759.386 197.593L759.139 197.525L758.893 197.452C757.228 196.961 755.575 196.424 753.942 195.841C749.244 198.355 743.791 199.816 737.781 199.816C728.955 199.816 720.536 196.402 714.224 190.395C708.044 196.234 699.708 199.816 690.535 199.816C683.031 199.816 676.087 197.418 670.425 193.35L670.384 193.373L670.315 193.41C660.815 198.563 650.495 200.712 640.146 200.712C629.195 200.712 618.44 198.399 608.529 193.144L608.316 193.031L608.105 192.914C606.708 192.14 605.349 191.318 604.026 190.451C597.92 196.254 589.663 199.816 580.574 199.816C576.839 199.816 573.244 199.212 569.881 198.101C563.733 200.009 557.467 200.712 551.518 200.712C543.482 200.712 535.199 199.372 527.315 195.868L527.093 195.769L526.871 195.666C521.788 193.294 517.002 190.107 512.843 185.998C506.765 195.045 496.486 200.712 485.229 200.712C462.31 200.712 446.258 178.079 453.835 156.449L457.354 146.399C451.382 144.526 446.11 141.074 442.026 136.53C435.711 143.556 426.554 147.976 416.363 147.976C411.034 147.976 405.987 146.766 401.48 144.608C399.48 145.466 397.466 146.167 395.464 146.73C390.345 148.17 385.112 148.872 379.841 148.872C369.391 148.872 358.006 146.483 348.3 139.278C342.263 144.686 334.29 147.976 325.548 147.976H321.335C318.192 147.976 315.162 147.49 312.316 146.591C306.987 148.129 301.488 148.872 295.916 148.872C286.843 148.872 277.679 147.192 269.074 143.056L268.889 142.966L268.705 142.874C264.313 140.678 260.363 137.93 256.889 134.699C254.063 138.153 250.357 140.967 245.934 142.757L245.927 142.76L245.919 142.763L232.757 148.08L232.753 148.081C226.875 150.455 220.659 150.65 214.997 149.05C209.311 150.549 203.101 150.247 197.265 147.771L197.26 147.769L184.193 142.222L184.187 142.219C178.362 139.744 173.827 135.489 170.952 130.354C170.911 130.331 170.871 130.307 170.83 130.283C165.593 140.771 154.757 147.976 142.237 147.976H136.338C120.352 147.976 107.124 136.18 104.878 120.817C96.3893 131.388 81.5852 136.348 67.501 130.88L23.3516 113.737C9.4948 108.357 0.291243 95.1425 0.00683594 80.3271L0 79.6201L0.00683594 78.9131C0.291155 64.0976 9.49475 50.8833 23.3516 45.5029L67.501 28.3604L68.0029 28.1699C70.8093 27.1307 73.641 26.5037 76.4424 26.248C81.0942 14.4226 92.4575 5.37606 106.999 5.37598H109.332C121.292 5.37598 132.378 11.6396 138.55 21.8838L139.984 24.2666L141.67 21.4922L141.958 21.0264C148.087 11.2963 158.79 5.37598 170.315 5.37598H172.135C185.654 5.37607 196.399 13.2692 201.479 23.9229C206.391 22.5935 211.427 22.6912 216.09 24.0078C221.57 22.5634 227.531 22.793 233.167 25.0166L233.822 25.2842L233.829 25.2871L246.896 30.833L246.897 30.834C249.055 31.75 251.036 32.9107 252.82 34.2686C258.741 29.4881 266.274 26.624 274.477 26.624L275.366 26.6357C285.03 26.8805 293.704 31.0999 299.819 37.7188C306.122 30.8969 315.144 26.624 325.164 26.624L326.055 26.6357C329.105 26.713 332.056 27.1872 334.86 28.0068C340.927 18.1174 351.837 11.5195 364.289 11.5195L365.18 11.5312C372.876 11.7263 379.945 14.4419 385.594 18.8828C391.292 7.67737 402.931 0 416.363 0L417.254 0.0117188ZM475.691 174.212H490.027L532.267 53.6357H517.931L475.691 174.212ZM557.022 104.196C551.561 104.196 546.27 104.921 541.15 106.372C536.116 107.737 531.763 109.828 528.094 112.644L534.366 124.292C536.926 122.159 540.041 120.494 543.71 119.3C547.464 118.105 551.262 117.508 555.102 117.508C560.819 117.508 565.086 118.83 567.902 121.476C570.718 124.036 572.126 127.663 572.126 132.356V133.38H554.462C547.55 133.38 542.004 134.276 537.822 136.068C533.641 137.86 530.612 140.292 528.734 143.364C526.942 146.436 526.046 149.892 526.046 153.732C526.046 157.658 527.07 161.199 529.118 164.356C531.251 167.428 534.238 169.86 538.078 171.652C541.918 173.359 546.398 174.212 551.518 174.212C557.576 174.212 562.569 173.102 566.494 170.884C569.258 169.355 571.434 167.4 573.022 165.021V173.316H588.126V133.252C588.126 123.353 585.395 116.058 579.934 111.364C574.558 106.586 566.921 104.196 557.022 104.196ZM640.146 104.196C632.978 104.196 626.577 105.689 620.945 108.676C615.399 111.662 611.046 115.801 607.889 121.092C604.731 126.297 603.153 132.313 603.153 139.14C603.153 145.881 604.731 151.898 607.889 157.188C611.046 162.479 615.399 166.66 620.945 169.732C626.577 172.719 632.978 174.212 640.146 174.212C646.801 174.212 652.646 172.847 657.681 170.116C662.801 167.3 666.684 163.332 669.329 158.212L657.041 151.044C654.993 154.287 652.476 156.676 649.489 158.212C646.588 159.748 643.43 160.516 640.017 160.516C636.091 160.516 632.55 159.663 629.393 157.956C626.235 156.249 623.761 153.817 621.969 150.66C620.177 147.417 619.281 143.577 619.281 139.14C619.281 134.703 620.177 130.905 621.969 127.748C623.761 124.506 626.235 122.031 629.393 120.324C632.55 118.618 636.091 117.764 640.017 117.764C643.43 117.764 646.588 118.532 649.489 120.068C652.476 121.604 654.993 123.994 657.041 127.236L669.329 120.068C666.684 114.863 662.801 110.937 657.681 108.292C652.646 105.561 646.801 104.196 640.146 104.196ZM786.105 104.196C779.962 104.196 774.628 105.092 770.105 106.884C765.668 108.59 762.212 111.065 759.737 114.308C757.263 117.465 756.025 121.22 756.025 125.572C756.025 129.497 756.793 132.655 758.329 135.044C759.865 137.433 761.87 139.353 764.345 140.804C766.819 142.169 769.55 143.236 772.537 144.004C775.609 144.687 778.638 145.241 781.625 145.668C784.697 146.095 787.471 146.564 789.945 147.076C792.42 147.588 794.425 148.356 795.961 149.38C797.497 150.318 798.265 151.726 798.265 153.604C798.265 155.908 797.113 157.743 794.809 159.108C792.59 160.474 788.963 161.156 783.929 161.156C779.662 161.156 775.396 160.516 771.129 159.236C766.862 157.956 763.193 156.335 760.121 154.372L753.977 166.532C757.049 168.666 761.187 170.5 766.393 172.036C771.683 173.487 777.188 174.212 782.905 174.212C789.305 174.212 794.809 173.359 799.417 171.652C804.025 169.86 807.566 167.385 810.041 164.228C812.601 161.07 813.881 157.358 813.881 153.092C813.881 149.252 813.113 146.137 811.577 143.748C810.041 141.359 807.993 139.524 805.433 138.244C802.958 136.879 800.228 135.812 797.241 135.044C794.255 134.276 791.225 133.721 788.153 133.38C785.167 132.953 782.436 132.441 779.961 131.844C777.486 131.246 775.481 130.436 773.945 129.412C772.409 128.388 771.641 126.852 771.641 124.804C771.641 122.585 772.793 120.75 775.097 119.3C777.486 117.849 781.113 117.124 785.977 117.124C789.219 117.124 792.462 117.508 795.705 118.276C799.033 118.959 802.319 120.282 805.562 122.244L811.705 110.084C808.633 108.207 804.75 106.756 800.057 105.732C795.364 104.708 790.713 104.196 786.105 104.196ZM682.535 173.316H698.535V155.299L710.435 144.045L734.119 173.316H753.575L722.365 133.604L750.887 104.964H731.688L698.535 135.62V78.3398H682.535V173.316ZM830.492 124.164L874.594 140.676L830.492 157.188V170.5L889.5 147.588V133.764L830.492 110.852V124.164ZM209.56 50.1016C209.353 49.5896 208.77 49.342 208.258 49.5488L198.306 53.5703C196.022 54.4933 194.918 57.093 195.841 59.377C196.587 61.2252 195.991 63.3207 194.568 64.7168C194.503 64.781 194.437 64.8453 194.372 64.9102C192.822 66.4601 190.508 67.1036 188.49 66.2471L185.556 65.001C185.047 64.7853 184.46 65.0232 184.244 65.5312L180.158 75.1572C179.136 77.5657 180.26 80.3478 182.668 81.3701L182.747 81.4033C184.615 82.1962 185.709 84.134 185.737 86.1631C185.767 88.2772 184.631 90.2839 182.671 91.0762L179.117 92.5127C178.605 92.7197 178.358 93.3035 178.564 93.8154L182.383 103.268C183.417 105.828 186.332 107.065 188.893 106.03L189.562 105.76C191.313 105.052 193.287 105.573 194.639 106.893C196.046 108.267 196.633 110.356 195.864 112.167L194.018 116.518C193.802 117.026 194.04 117.613 194.548 117.829L203.933 121.812C206.474 122.891 209.409 121.705 210.488 119.164L211.015 117.924C211.722 116.257 213.451 115.276 215.262 115.273C217.105 115.271 218.833 116.285 219.523 117.994L221.529 122.957C221.736 123.468 222.318 123.715 222.83 123.509L235.992 118.192C236.504 117.985 236.751 117.402 236.545 116.891L234.539 111.927C233.849 110.218 234.389 108.287 235.717 107.009C237.022 105.753 238.945 105.258 240.612 105.966L245.535 108.056C246.043 108.271 246.631 108.033 246.847 107.525L252.393 94.459C252.608 93.9508 252.371 93.3634 251.863 93.1475L247.511 91.2998C245.7 90.5311 244.671 88.6204 244.729 86.6543C244.784 84.7669 245.843 83.0208 247.594 82.3135L251.973 80.5449C252.484 80.3381 252.732 79.755 252.525 79.2432L247.207 66.0811C247 65.5693 246.417 65.3215 245.905 65.5283L242.352 66.9639C240.391 67.7555 238.181 67.1 236.733 65.5586C235.345 64.0791 234.785 61.9256 235.578 60.0576L237.071 56.5391C237.287 56.0308 237.05 55.4435 236.542 55.2275L223.475 49.6807C222.966 49.4653 222.379 49.7028 222.163 50.2109L220.919 53.1436C220.062 55.162 217.929 56.3055 215.736 56.2695C213.58 56.234 211.561 55.0535 210.753 53.0537L209.56 50.1016ZM266.476 92.1641C266.476 98.9907 267.714 104.666 270.188 109.188C272.663 113.625 276.119 116.953 280.556 119.172C284.993 121.305 290.113 122.372 295.916 122.372C301.207 122.372 306.071 121.22 310.508 118.916C313.452 117.331 315.927 115.294 317.932 112.807V121.476H333.164V53.124H317.164V87.6836C317.164 92.2062 316.354 96.0042 314.732 99.0762C313.196 102.148 311.02 104.452 308.204 105.988C305.473 107.524 302.23 108.292 298.476 108.292C293.356 108.292 289.388 106.798 286.572 103.812C283.842 100.74 282.476 96.132 282.476 89.9883V53.124H266.476V92.1641ZM356.289 53.6357H345.025V66.4355H356.289V99.332C356.289 106.927 358.337 112.687 362.433 116.612C366.529 120.452 372.332 122.372 379.841 122.372C382.742 122.372 385.558 121.988 388.289 121.22C391.02 120.452 393.324 119.3 395.201 117.764L390.721 106.372C388.331 108.249 385.345 109.188 381.761 109.188C378.774 109.188 376.427 108.292 374.721 106.5C373.099 104.708 372.289 102.191 372.289 98.9482V66.4355H390.593V53.6357H372.289V38.0195H356.289V53.6357ZM131.04 90.1172V121.476H147.68V89.9062L182.752 31.876H166.368L139.892 75.4629L113.632 31.876H95.8398L131.04 90.1172ZM408.363 121.476H424.363V86.916C424.363 82.3082 425.131 78.511 426.667 75.5244C428.288 72.4524 430.55 70.1483 433.451 68.6123C436.352 67.0764 439.68 66.3077 443.435 66.3076C448.555 66.3076 452.523 67.8014 455.339 70.7881C458.24 73.7747 459.691 78.2978 459.691 84.3564V121.476H475.691V82.3076C475.691 75.3959 474.454 69.764 471.979 65.4121C469.505 60.9748 466.091 57.689 461.739 55.5557C457.473 53.4224 452.609 52.3565 447.147 52.3564C441.174 52.3564 435.883 53.5511 431.275 55.9404C428.598 57.3045 426.293 59.0265 424.363 61.1084V26.5H408.363V121.476ZM26.5 72.708V86.5322L85.5078 109.444V96.1318L41.4062 79.6201L85.5078 63.1084V49.7959L26.5 72.708Z" fill="#2C3D9C"/>
<mask id="mask0_138_77" style="mask-type:alpha" maskUnits="userSpaceOnUse" x="0" y="0" width="916" height="201">
<path d="M572.126 151.94C570.761 155.439 568.499 158.084 565.342 159.876C562.27 161.668 558.771 162.564 554.846 162.564C550.75 162.564 547.55 161.711 545.246 160.004C542.942 158.297 541.79 155.993 541.79 153.092C541.79 150.532 542.729 148.399 544.606 146.692C546.484 144.9 550.153 144.004 555.614 144.004H572.126V151.94Z" fill="#2C3D9C"/>
<path d="M214.665 67.3184C224.788 67.3186 232.994 75.5252 232.994 85.6484C232.994 95.7713 224.788 103.978 214.665 103.979C204.542 103.978 196.335 95.7714 196.335 85.6484C196.335 75.5252 204.542 67.3185 214.665 67.3184Z" fill="#2C3D9C"/>
<path fill-rule="evenodd" clip-rule="evenodd" d="M417.254 0.0117188C432.948 0.409507 446.037 11.2877 449.784 25.9092C457.818 26.2258 465.838 28.0154 473.402 31.7617L473.403 31.7607C473.441 31.779 473.477 31.7981 473.515 31.8164C473.54 31.8289 473.565 31.841 473.59 31.8535C481.145 35.5953 487.326 40.9948 492.025 47.5996C497.163 35.2666 509.244 27.1357 522.729 27.1357L523.265 27.1396C545.897 27.4888 561.641 49.9377 554.123 71.3984L551.862 77.8506C553.576 77.7488 555.297 77.6963 557.022 77.6963C570.96 77.6964 585.75 81.0777 597.54 91.5576C597.774 91.7621 598.004 91.9675 598.231 92.1748C601.349 89.5848 604.742 87.3038 608.382 85.3438L608.455 85.3037L608.529 85.2646C618.44 80.0088 629.195 77.6963 640.146 77.6963C645.706 77.6963 651.257 78.3174 656.678 79.6904C659.777 63.8186 673.756 51.8398 690.535 51.8398L691.426 51.8516C707.906 52.2692 721.512 64.2443 724.446 79.9746C727.634 78.9812 730.978 78.4639 734.373 78.4639L735.066 78.4707C742.59 78.6131 749.138 81.071 754.359 84.9971C756.351 83.9313 758.395 83.0018 760.47 82.1982C768.761 78.9355 777.507 77.6963 786.105 77.6963C792.692 77.6963 799.236 78.4291 805.706 79.8408C808.835 80.5235 811.949 81.388 814.992 82.4814C819.404 84.0665 823.045 86.305 825.983 88.9834C832.945 86.5539 840.829 86.4378 848.499 89.416L892.648 106.559C906.725 112.024 916 125.575 916 140.676C916 155.777 906.725 169.327 892.648 174.793L848.499 191.936C838.871 195.674 828.908 194.537 820.854 190.068C817.097 192.712 813.082 194.771 809.021 196.351L808.822 196.428L808.621 196.502C800.327 199.574 791.546 200.712 782.905 200.712C774.921 200.712 767.054 199.695 759.386 197.593L759.139 197.525L758.893 197.452C757.228 196.961 755.575 196.424 753.942 195.841C749.244 198.355 743.791 199.816 737.781 199.816C728.955 199.816 720.536 196.402 714.224 190.395C708.044 196.234 699.708 199.816 690.535 199.816C683.031 199.816 676.087 197.418 670.425 193.35L670.384 193.373L670.315 193.41C660.815 198.563 650.495 200.712 640.146 200.712C629.195 200.712 618.44 198.399 608.529 193.144L608.316 193.031L608.105 192.914C606.708 192.14 605.349 191.318 604.026 190.451C597.92 196.254 589.663 199.816 580.574 199.816C576.839 199.816 573.244 199.212 569.881 198.101C563.733 200.009 557.467 200.712 551.518 200.712C543.482 200.712 535.199 199.372 527.315 195.868L527.093 195.769L526.871 195.666C521.788 193.294 517.002 190.107 512.843 185.998C506.765 195.045 496.486 200.712 485.229 200.712C462.31 200.712 446.258 178.079 453.835 156.449L457.354 146.399C451.382 144.526 446.11 141.074 442.026 136.53C435.711 143.556 426.554 147.976 416.363 147.976C411.034 147.976 405.987 146.766 401.48 144.608C399.48 145.466 397.466 146.167 395.464 146.73C390.345 148.17 385.112 148.872 379.841 148.872C369.391 148.872 358.006 146.483 348.3 139.278C342.263 144.686 334.29 147.976 325.548 147.976H321.335C318.192 147.976 315.162 147.49 312.316 146.591C306.987 148.129 301.488 148.872 295.916 148.872C286.843 148.872 277.679 147.192 269.074 143.056L268.889 142.966L268.705 142.874C264.313 140.678 260.363 137.93 256.889 134.699C254.063 138.153 250.357 140.967 245.934 142.757L245.927 142.76L245.919 142.763L232.757 148.08L232.753 148.081C226.875 150.455 220.659 150.65 214.997 149.05C209.311 150.549 203.101 150.247 197.265 147.771L197.26 147.769L184.193 142.222L184.187 142.219C178.362 139.744 173.827 135.489 170.952 130.354C170.911 130.331 170.871 130.307 170.83 130.283C165.593 140.771 154.757 147.976 142.237 147.976H136.338C120.352 147.976 107.124 136.18 104.878 120.817C96.3893 131.388 81.5852 136.348 67.501 130.88L23.3516 113.737C9.4948 108.357 0.291243 95.1425 0.00683594 80.3271L0 79.6201L0.00683594 78.9131C0.291155 64.0976 9.49475 50.8833 23.3516 45.5029L67.501 28.3604L68.0029 28.1699C70.8093 27.1307 73.641 26.5037 76.4424 26.248C81.0942 14.4226 92.4575 5.37606 106.999 5.37598H109.332C121.292 5.37598 132.378 11.6396 138.55 21.8838L139.984 24.2666L141.67 21.4922L141.958 21.0264C148.087 11.2963 158.79 5.37598 170.315 5.37598H172.135C185.654 5.37607 196.399 13.2692 201.479 23.9229C206.391 22.5935 211.427 22.6912 216.09 24.0078C221.57 22.5634 227.531 22.793 233.167 25.0166L233.822 25.2842L233.829 25.2871L246.896 30.833L246.897 30.834C249.055 31.75 251.036 32.9107 252.82 34.2686C258.741 29.4881 266.274 26.624 274.477 26.624L275.366 26.6357C285.03 26.8805 293.704 31.0999 299.819 37.7188C306.122 30.8969 315.144 26.624 325.164 26.624L326.055 26.6357C329.105 26.713 332.056 27.1872 334.86 28.0068C340.927 18.1174 351.837 11.5195 364.289 11.5195L365.18 11.5312C372.876 11.7263 379.945 14.4419 385.594 18.8828C391.292 7.67737 402.931 0 416.363 0L417.254 0.0117188ZM475.691 174.212H490.027L532.267 53.6357H517.931L475.691 174.212ZM557.022 104.196C551.561 104.196 546.27 104.921 541.15 106.372C536.116 107.737 531.763 109.828 528.094 112.644L534.366 124.292C536.926 122.159 540.041 120.494 543.71 119.3C547.464 118.105 551.262 117.508 555.102 117.508C560.819 117.508 565.086 118.83 567.902 121.476C570.718 124.036 572.126 127.663 572.126 132.356V133.38H554.462C547.55 133.38 542.004 134.276 537.822 136.068C533.641 137.86 530.612 140.292 528.734 143.364C526.942 146.436 526.046 149.892 526.046 153.732C526.046 157.658 527.07 161.199 529.118 164.356C531.251 167.428 534.238 169.86 538.078 171.652C541.918 173.359 546.398 174.212 551.518 174.212C557.576 174.212 562.569 173.102 566.494 170.884C569.258 169.355 571.434 167.4 573.022 165.021V173.316H588.126V133.252C588.126 123.353 585.395 116.058 579.934 111.364C574.558 106.586 566.921 104.196 557.022 104.196ZM640.146 104.196C632.978 104.196 626.577 105.689 620.945 108.676C615.399 111.662 611.046 115.801 607.889 121.092C604.731 126.297 603.153 132.313 603.153 139.14C603.153 145.881 604.731 151.898 607.889 157.188C611.046 162.479 615.399 166.66 620.945 169.732C626.577 172.719 632.978 174.212 640.146 174.212C646.801 174.212 652.646 172.847 657.681 170.116C662.801 167.3 666.684 163.332 669.329 158.212L657.041 151.044C654.993 154.287 652.476 156.676 649.489 158.212C646.588 159.748 643.43 160.516 640.017 160.516C636.091 160.516 632.55 159.663 629.393 157.956C626.235 156.249 623.761 153.817 621.969 150.66C620.177 147.417 619.281 143.577 619.281 139.14C619.281 134.703 620.177 130.905 621.969 127.748C623.761 124.506 626.235 122.031 629.393 120.324C632.55 118.618 636.091 117.764 640.017 117.764C643.43 117.764 646.588 118.532 649.489 120.068C652.476 121.604 654.993 123.994 657.041 127.236L669.329 120.068C666.684 114.863 662.801 110.937 657.681 108.292C652.646 105.561 646.801 104.196 640.146 104.196ZM786.105 104.196C779.962 104.196 774.628 105.092 770.105 106.884C765.668 108.59 762.212 111.065 759.737 114.308C757.263 117.465 756.025 121.22 756.025 125.572C756.025 129.497 756.793 132.655 758.329 135.044C759.865 137.433 761.87 139.353 764.345 140.804C766.819 142.169 769.55 143.236 772.537 144.004C775.609 144.687 778.638 145.241 781.625 145.668C784.697 146.095 787.471 146.564 789.945 147.076C792.42 147.588 794.425 148.356 795.961 149.38C797.497 150.318 798.265 151.726 798.265 153.604C798.265 155.908 797.113 157.743 794.809 159.108C792.59 160.474 788.963 161.156 783.929 161.156C779.662 161.156 775.396 160.516 771.129 159.236C766.862 157.956 763.193 156.335 760.121 154.372L753.977 166.532C757.049 168.666 761.187 170.5 766.393 172.036C771.683 173.487 777.188 174.212 782.905 174.212C789.305 174.212 794.809 173.359 799.417 171.652C804.025 169.86 807.566 167.385 810.041 164.228C812.601 161.07 813.881 157.358 813.881 153.092C813.881 149.252 813.113 146.137 811.577 143.748C810.041 141.359 807.993 139.524 805.433 138.244C802.958 136.879 800.228 135.812 797.241 135.044C794.255 134.276 791.225 133.721 788.153 133.38C785.167 132.953 782.436 132.441 779.961 131.844C777.486 131.246 775.481 130.436 773.945 129.412C772.409 128.388 771.641 126.852 771.641 124.804C771.641 122.585 772.793 120.75 775.097 119.3C777.486 117.849 781.113 117.124 785.977 117.124C789.219 117.124 792.462 117.508 795.705 118.276C799.033 118.959 802.319 120.282 805.562 122.244L811.705 110.084C808.633 108.207 804.75 106.756 800.057 105.732C795.364 104.708 790.713 104.196 786.105 104.196ZM682.535 173.316H698.535V155.299L710.435 144.045L734.119 173.316H753.575L722.365 133.604L750.887 104.964H731.688L698.535 135.62V78.3398H682.535V173.316ZM830.492 124.164L874.594 140.676L830.492 157.188V170.5L889.5 147.588V133.764L830.492 110.852V124.164ZM209.56 50.1016C209.353 49.5896 208.77 49.342 208.258 49.5488L198.306 53.5703C196.022 54.4933 194.918 57.093 195.841 59.377C196.587 61.2252 195.991 63.3207 194.568 64.7168C194.503 64.781 194.437 64.8453 194.372 64.9102C192.822 66.4601 190.508 67.1036 188.49 66.2471L185.556 65.001C185.047 64.7853 184.46 65.0232 184.244 65.5312L180.158 75.1572C179.136 77.5657 180.26 80.3478 182.668 81.3701L182.747 81.4033C184.615 82.1962 185.709 84.134 185.737 86.1631C185.767 88.2772 184.631 90.2839 182.671 91.0762L179.117 92.5127C178.605 92.7197 178.358 93.3035 178.564 93.8154L182.383 103.268C183.417 105.828 186.332 107.065 188.893 106.03L189.562 105.76C191.313 105.052 193.287 105.573 194.639 106.893C196.046 108.267 196.633 110.356 195.864 112.167L194.018 116.518C193.802 117.026 194.04 117.613 194.548 117.829L203.933 121.812C206.474 122.891 209.409 121.705 210.488 119.164L211.015 117.924C211.722 116.257 213.451 115.276 215.262 115.273C217.105 115.271 218.833 116.285 219.523 117.994L221.529 122.957C221.736 123.468 222.318 123.715 222.83 123.509L235.992 118.192C236.504 117.985 236.751 117.402 236.545 116.891L234.539 111.927C233.849 110.218 234.389 108.287 235.717 107.009C237.022 105.753 238.945 105.258 240.612 105.966L245.535 108.056C246.043 108.271 246.631 108.033 246.847 107.525L252.393 94.459C252.608 93.9508 252.371 93.3634 251.863 93.1475L247.511 91.2998C245.7 90.5311 244.671 88.6204 244.729 86.6543C244.784 84.7669 245.843 83.0208 247.594 82.3135L251.973 80.5449C252.484 80.3381 252.732 79.755 252.525 79.2432L247.207 66.0811C247 65.5693 246.417 65.3215 245.905 65.5283L242.352 66.9639C240.391 67.7555 238.181 67.1 236.733 65.5586C235.345 64.0791 234.785 61.9256 235.578 60.0576L237.071 56.5391C237.287 56.0308 237.05 55.4435 236.542 55.2275L223.475 49.6807C222.966 49.4653 222.379 49.7028 222.163 50.2109L220.919 53.1436C220.062 55.162 217.929 56.3055 215.736 56.2695C213.58 56.234 211.561 55.0535 210.753 53.0537L209.56 50.1016ZM266.476 92.1641C266.476 98.9907 267.714 104.666 270.188 109.188C272.663 113.625 276.119 116.953 280.556 119.172C284.993 121.305 290.113 122.372 295.916 122.372C301.207 122.372 306.071 121.22 310.508 118.916C313.452 117.331 315.927 115.294 317.932 112.807V121.476H333.164V53.124H317.164V87.6836C317.164 92.2062 316.354 96.0042 314.732 99.0762C313.196 102.148 311.02 104.452 308.204 105.988C305.473 107.524 302.23 108.292 298.476 108.292C293.356 108.292 289.388 106.798 286.572 103.812C283.842 100.74 282.476 96.132 282.476 89.9883V53.124H266.476V92.1641ZM356.289 53.6357H345.025V66.4355H356.289V99.332C356.289 106.927 358.337 112.687 362.433 116.612C366.529 120.452 372.332 122.372 379.841 122.372C382.742 122.372 385.558 121.988 388.289 121.22C391.02 120.452 393.324 119.3 395.201 117.764L390.721 106.372C388.331 108.249 385.345 109.188 381.761 109.188C378.774 109.188 376.427 108.292 374.721 106.5C373.099 104.708 372.289 102.191 372.289 98.9482V66.4355H390.593V53.6357H372.289V38.0195H356.289V53.6357ZM131.04 90.1172V121.476H147.68V89.9062L182.752 31.876H166.368L139.892 75.4629L113.632 31.876H95.8398L131.04 90.1172ZM408.363 121.476H424.363V86.916C424.363 82.3082 425.131 78.511 426.667 75.5244C428.288 72.4524 430.55 70.1483 433.451 68.6123C436.352 67.0764 439.68 66.3077 443.435 66.3076C448.555 66.3076 452.523 67.8014 455.339 70.7881C458.24 73.7747 459.691 78.2978 459.691 84.3564V121.476H475.691V82.3076C475.691 75.3959 474.454 69.764 471.979 65.4121C469.505 60.9748 466.091 57.689 461.739 55.5557C457.473 53.4224 452.609 52.3565 447.147 52.3564C441.174 52.3564 435.883 53.5511 431.275 55.9404C428.598 57.3045 426.293 59.0265 424.363 61.1084V26.5H408.363V121.476ZM26.5 72.708V86.5322L85.5078 109.444V96.1318L41.4062 79.6201L85.5078 63.1084V49.7959L26.5 72.708Z" fill="#2C3D9C"/>
</mask>
<g mask="url(#mask0_138_77)">
<rect x="618.293" y="-213" width="491.372" height="618" transform="rotate(19.5 618.293 -213)" fill="#414974"/>
</g>
</svg>
