<svg width="916" height="201" viewBox="0 0 916 201" fill="none" xmlns="http://www.w3.org/2000/svg">
<path d="M417.254 0.0117188C432.948 0.409507 446.037 11.2877 449.784 25.9092C457.818 26.2258 465.838 28.0154 473.402 31.7617L473.403 31.7607C473.441 31.779 473.477 31.7981 473.515 31.8164C473.54 31.8289 473.565 31.841 473.59 31.8535C481.145 35.5953 487.326 40.9948 492.025 47.5996C497.163 35.2666 509.244 27.1357 522.729 27.1357L523.265 27.1396C545.897 27.4888 561.641 49.9377 554.123 71.3984L551.862 77.8506C553.576 77.7488 555.297 77.6963 557.022 77.6963C570.96 77.6964 585.75 81.0777 597.54 91.5576C597.774 91.7621 598.004 91.9675 598.231 92.1748C601.349 89.5848 604.742 87.3038 608.382 85.3438L608.455 85.3037L608.529 85.2646C618.44 80.0088 629.195 77.6963 640.146 77.6963C645.706 77.6963 651.257 78.3174 656.678 79.6904C659.777 63.8186 673.756 51.8398 690.535 51.8398L691.426 51.8516C707.906 52.2692 721.512 64.2443 724.446 79.9746C727.634 78.9812 730.978 78.4639 734.373 78.4639L735.066 78.4707C742.59 78.6131 749.138 81.071 754.359 84.9971C756.351 83.9313 758.395 83.0018 760.47 82.1982C768.761 78.9355 777.507 77.6963 786.105 77.6963C792.692 77.6963 799.236 78.4291 805.706 79.8408C808.835 80.5235 811.949 81.388 814.992 82.4814C819.404 84.0665 823.045 86.305 825.983 88.9834C832.945 86.5539 840.829 86.4378 848.499 89.416L892.648 106.559C906.725 112.024 916 125.575 916 140.676C916 155.777 906.725 169.327 892.648 174.793L848.499 191.936C838.871 195.674 828.908 194.537 820.854 190.068C817.097 192.712 813.082 194.771 809.021 196.351L808.822 196.428L808.621 196.502C800.327 199.574 791.546 200.712 782.905 200.712C774.921 200.712 767.054 199.695 759.386 197.593L759.139 197.525L758.893 197.452C757.228 196.961 755.575 196.424 753.942 195.841C749.244 198.355 743.791 199.816 737.781 199.816C728.955 199.816 720.536 196.402 714.224 190.395C708.044 196.234 699.708 199.816 690.535 199.816C683.031 199.816 676.087 197.418 670.425 193.35L670.384 193.373L670.315 193.41C660.815 198.563 650.495 200.712 640.146 200.712C629.195 200.712 618.44 198.399 608.529 193.144L608.316 193.031L608.105 192.914C606.708 192.14 605.349 191.318 604.026 190.451C597.92 196.254 589.663 199.816 580.574 199.816C576.839 199.816 573.244 199.212 569.881 198.101C563.733 200.009 557.467 200.712 551.518 200.712C543.482 200.712 535.199 199.372 527.315 195.868L527.093 195.769L526.871 195.666C521.788 193.294 517.002 190.107 512.843 185.998C506.765 195.045 496.486 200.712 485.229 200.712C462.31 200.712 446.258 178.079 453.835 156.449L457.354 146.399C451.382 144.526 446.11 141.074 442.026 136.53C435.711 143.556 426.554 147.976 416.363 147.976C411.034 147.976 405.987 146.766 401.48 144.608C399.48 145.466 397.466 146.167 395.464 146.73C390.345 148.17 385.112 148.872 379.841 148.872C369.391 148.872 358.006 146.483 348.3 139.278C342.263 144.686 334.29 147.976 325.548 147.976H321.335C318.192 147.976 315.162 147.49 312.316 146.591C306.987 148.129 301.488 148.872 295.916 148.872C286.843 148.872 277.679 147.192 269.074 143.056L268.889 142.966L268.705 142.874C264.313 140.678 260.363 137.93 256.889 134.699C254.063 138.153 250.357 140.967 245.934 142.757L245.927 142.76L245.919 142.763L232.757 148.08L232.753 148.081C226.875 150.455 220.659 150.65 214.997 149.05C209.311 150.549 203.101 150.247 197.265 147.771L197.26 147.769L184.193 142.222L184.187 142.219C178.362 139.744 173.827 135.489 170.952 130.354C170.911 130.331 170.871 130.307 170.83 130.283C165.593 140.771 154.757 147.976 142.237 147.976H136.338C120.352 147.976 107.124 136.18 104.878 120.817C96.3893 131.388 81.5852 136.348 67.501 130.88L23.3516 113.737C9.4948 108.357 0.291243 95.1425 0.00683594 80.3271L0 79.6201L0.00683594 78.9131C0.291155 64.0976 9.49475 50.8833 23.3516 45.5029L67.501 28.3604L68.0029 28.1699C70.8093 27.1307 73.641 26.5037 76.4424 26.248C81.0942 14.4226 92.4575 5.37606 106.999 5.37598H109.332C121.292 5.37598 132.378 11.6396 138.55 21.8838L139.984 24.2666L141.67 21.4922L141.958 21.0264C148.087 11.2963 158.79 5.37598 170.315 5.37598H172.135C185.654 5.37607 196.399 13.2692 201.479 23.9229C206.391 22.5935 211.427 22.6912 216.09 24.0078C221.57 22.5634 227.531 22.793 233.167 25.0166L233.822 25.2842L233.829 25.2871L246.896 30.833L246.897 30.834C249.055 31.75 251.036 32.9107 252.82 34.2686C258.741 29.4881 266.274 26.624 274.477 26.624L275.366 26.6357C285.03 26.8805 293.704 31.0999 299.819 37.7188C306.122 30.8969 315.144 26.624 325.164 26.624L326.055 26.6357C329.105 26.713 332.056 27.1872 334.86 28.0068C340.927 18.1174 351.837 11.5195 364.289 11.5195L365.18 11.5312C372.876 11.7263 379.945 14.4419 385.594 18.8828C391.292 7.67737 402.931 0 416.363 0L417.254 0.0117188Z" fill="black"/>
<path d="M85.5079 109.444L26.4999 86.532V72.708L85.5079 49.796V63.108L31.4919 83.332V75.908L85.5079 96.132V109.444Z" fill="white"/>
<path d="M131.04 121.476V86.02L134.752 96.26L95.84 31.876H113.632L144.864 83.716H134.88L166.368 31.876H182.752L143.84 96.26L147.68 86.02V121.476H131.04Z" fill="white"/>
<path d="M295.916 122.372C290.113 122.372 284.993 121.305 280.556 119.172C276.119 116.953 272.663 113.625 270.188 109.188C267.713 104.665 266.476 98.9907 266.476 92.164V53.124H282.476V89.988C282.476 96.132 283.841 100.74 286.572 103.812C289.388 106.799 293.356 108.292 298.476 108.292C302.231 108.292 305.473 107.524 308.204 105.988C311.02 104.452 313.196 102.148 314.732 99.076C316.353 96.004 317.164 92.2067 317.164 87.684V53.124H333.164V121.476H317.932V103.044L320.62 108.676C318.316 113.113 314.945 116.527 310.508 118.916C306.071 121.22 301.207 122.372 295.916 122.372Z" fill="white"/>
<path d="M379.841 122.372C372.332 122.372 366.529 120.452 362.433 116.612C358.337 112.687 356.289 106.927 356.289 99.332V38.02H372.289V98.948C372.289 102.191 373.1 104.708 374.721 106.5C376.428 108.292 378.774 109.188 381.761 109.188C385.345 109.188 388.332 108.249 390.721 106.372L395.201 117.764C393.324 119.3 391.02 120.452 388.289 121.22C385.558 121.988 382.742 122.372 379.841 122.372ZM345.025 66.436V53.636H390.593V66.436H345.025Z" fill="white"/>
<path d="M447.147 52.356C452.608 52.356 457.472 53.4227 461.739 55.556C466.091 57.6893 469.504 60.9747 471.979 65.412C474.454 69.764 475.691 75.396 475.691 82.308V121.476H459.691V84.356C459.691 78.2973 458.24 73.7747 455.339 70.788C452.523 67.8013 448.555 66.308 443.435 66.308C439.68 66.308 436.352 67.076 433.451 68.612C430.55 70.148 428.288 72.452 426.667 75.524C425.131 78.5107 424.363 82.308 424.363 86.916V121.476H408.363V26.5H424.363V71.556L420.907 65.924C423.296 61.572 426.752 58.244 431.275 55.94C435.883 53.5507 441.174 52.356 447.147 52.356Z" fill="white"/>
<path d="M475.691 174.212L517.931 53.636H532.267L490.027 174.212H475.691Z" fill="white"/>
<path d="M573.022 173.316V159.492L572.126 156.548V132.356C572.126 127.663 570.718 124.036 567.902 121.476C565.086 118.831 560.819 117.508 555.102 117.508C551.262 117.508 547.465 118.105 543.71 119.3C540.041 120.495 536.926 122.159 534.366 124.292L528.094 112.644C531.763 109.828 536.115 107.737 541.15 106.372C546.27 104.921 551.561 104.196 557.022 104.196C566.921 104.196 574.558 106.585 579.934 111.364C585.395 116.057 588.126 123.353 588.126 133.252V173.316H573.022ZM551.518 174.212C546.398 174.212 541.918 173.359 538.078 171.652C534.238 169.86 531.251 167.428 529.118 164.356C527.07 161.199 526.046 157.657 526.046 153.732C526.046 149.892 526.942 146.436 528.734 143.364C530.611 140.292 533.641 137.86 537.822 136.068C542.003 134.276 547.55 133.38 554.462 133.38H574.302V144.004H555.614C550.153 144.004 546.483 144.9 544.606 146.692C542.729 148.399 541.79 150.532 541.79 153.092C541.79 155.993 542.942 158.297 545.246 160.004C547.55 161.711 550.75 162.564 554.846 162.564C558.771 162.564 562.27 161.668 565.342 159.876C568.499 158.084 570.761 155.439 572.126 151.94L574.814 161.54C573.278 165.551 570.505 168.665 566.494 170.884C562.569 173.103 557.577 174.212 551.518 174.212Z" fill="white"/>
<path d="M640.145 174.212C632.977 174.212 626.577 172.719 620.945 169.732C615.398 166.66 611.046 162.479 607.889 157.188C604.732 151.897 603.153 145.881 603.153 139.14C603.153 132.313 604.732 126.297 607.889 121.092C611.046 115.801 615.398 111.663 620.945 108.676C626.577 105.689 632.977 104.196 640.145 104.196C646.801 104.196 652.646 105.561 657.681 108.292C662.801 110.937 666.684 114.863 669.329 120.068L657.041 127.236C654.993 123.993 652.476 121.604 649.489 120.068C646.588 118.532 643.43 117.764 640.017 117.764C636.092 117.764 632.55 118.617 629.393 120.324C626.236 122.031 623.761 124.505 621.969 127.748C620.177 130.905 619.281 134.703 619.281 139.14C619.281 143.577 620.177 147.417 621.969 150.66C623.761 153.817 626.236 156.249 629.393 157.956C632.55 159.663 636.092 160.516 640.017 160.516C643.43 160.516 646.588 159.748 649.489 158.212C652.476 156.676 654.993 154.287 657.041 151.044L669.329 158.212C666.684 163.332 662.801 167.3 657.681 170.116C652.646 172.847 646.801 174.212 640.145 174.212Z" fill="white"/>
<path d="M695.591 158.084L695.975 137.988L731.687 104.964H750.887L720.551 135.428L712.103 142.468L695.591 158.084ZM682.535 173.316V78.34H698.535V173.316H682.535ZM734.119 173.316L709.159 142.468L719.271 129.668L753.575 173.316H734.119Z" fill="white"/>
<path d="M782.905 174.212C777.188 174.212 771.684 173.487 766.393 172.036C761.188 170.5 757.049 168.665 753.977 166.532L760.121 154.372C763.193 156.335 766.862 157.956 771.129 159.236C775.396 160.516 779.662 161.156 783.929 161.156C788.964 161.156 792.59 160.473 794.809 159.108C797.113 157.743 798.265 155.908 798.265 153.604C798.265 151.727 797.497 150.319 795.961 149.38C794.425 148.356 792.42 147.588 789.945 147.076C787.47 146.564 784.697 146.095 781.625 145.668C778.638 145.241 775.609 144.687 772.537 144.004C769.55 143.236 766.82 142.169 764.345 140.804C761.87 139.353 759.865 137.433 758.329 135.044C756.793 132.655 756.025 129.497 756.025 125.572C756.025 121.22 757.262 117.465 759.737 114.308C762.212 111.065 765.668 108.591 770.105 106.884C774.628 105.092 779.961 104.196 786.105 104.196C790.713 104.196 795.364 104.708 800.057 105.732C804.75 106.756 808.633 108.207 811.705 110.084L805.561 122.244C802.318 120.281 799.033 118.959 795.705 118.276C792.462 117.508 789.22 117.124 785.977 117.124C781.113 117.124 777.486 117.849 775.097 119.3C772.793 120.751 771.641 122.585 771.641 124.804C771.641 126.852 772.409 128.388 773.945 129.412C775.481 130.436 777.486 131.247 779.961 131.844C782.436 132.441 785.166 132.953 788.153 133.38C791.225 133.721 794.254 134.276 797.241 135.044C800.228 135.812 802.958 136.879 805.433 138.244C807.993 139.524 810.041 141.359 811.577 143.748C813.113 146.137 813.881 149.252 813.881 153.092C813.881 157.359 812.601 161.071 810.041 164.228C807.566 167.385 804.025 169.86 799.417 171.652C794.809 173.359 789.305 174.212 782.905 174.212Z" fill="white"/>
<path d="M830.492 170.5V157.188L884.508 136.964V144.388L830.492 124.164V110.852L889.5 133.764V147.588L830.492 170.5Z" fill="white"/>
<mask id="path-3-inside-1_138_58" fill="white">
<path d="M208.258 49.5485C208.77 49.3416 209.353 49.5893 209.56 50.1012L210.753 53.0534C211.561 55.0533 213.58 56.2338 215.737 56.2692C217.929 56.3051 220.062 55.1619 220.919 53.1432L222.163 50.2106C222.379 49.7024 222.967 49.4649 223.475 49.6803L236.542 55.2272C237.05 55.4431 237.287 56.0305 237.072 56.5387L235.578 60.0573C234.785 61.9253 235.345 64.0787 236.734 65.5583C238.181 67.0998 240.391 67.7554 242.352 66.9635L245.906 65.528C246.417 65.3212 247 65.569 247.207 66.0807L252.526 79.2428C252.732 79.7547 252.485 80.3377 251.973 80.5446L247.594 82.3131C245.843 83.0204 244.785 84.7664 244.729 86.654C244.671 88.6202 245.7 90.5307 247.511 91.2995L251.864 93.1471C252.372 93.363 252.608 93.9505 252.393 94.4586L246.847 107.525C246.631 108.033 246.044 108.271 245.535 108.055L240.613 105.965C238.945 105.258 237.022 105.753 235.717 107.008C234.389 108.287 233.849 110.217 234.539 111.926L236.545 116.89C236.752 117.402 236.504 117.985 235.992 118.192L222.83 123.508C222.319 123.715 221.737 123.468 221.53 122.957L219.524 117.994C218.833 116.285 217.105 115.27 215.262 115.273C213.451 115.276 211.723 116.256 211.015 117.923L208.926 122.845C208.71 123.354 208.123 123.59 207.615 123.375L194.548 117.829C194.04 117.613 193.802 117.025 194.018 116.517L195.866 112.166C196.634 110.355 196.047 108.266 194.64 106.892C193.289 105.573 191.314 105.052 189.563 105.759L185.185 107.529C184.673 107.736 184.089 107.488 183.882 106.976L178.565 93.8151C178.358 93.303 178.605 92.7192 179.117 92.5124L182.671 91.0758C184.632 90.2835 185.767 88.277 185.738 86.1627C185.709 84.1337 184.615 82.1959 182.747 81.403L179.228 79.9088C178.719 79.693 178.482 79.1057 178.698 78.5973L184.244 65.5309C184.46 65.0228 185.048 64.7849 185.556 65.0006L188.491 66.2467C190.509 67.1033 192.835 66.4442 194.387 64.8952C195.913 63.3714 196.545 61.1203 195.738 59.1208L194.545 56.1676C194.339 55.6557 194.585 55.0728 195.097 54.8659L208.258 49.5485ZM214.665 67.318C204.542 67.318 196.335 75.5248 196.335 85.6481C196.335 95.7713 204.542 103.978 214.665 103.978C224.788 103.978 232.994 95.7712 232.994 85.6481C232.994 75.5249 224.788 67.3183 214.665 67.318Z"/>
</mask>
<path d="M208.258 49.5485C208.77 49.3416 209.353 49.5893 209.56 50.1012L210.753 53.0534C211.561 55.0533 213.58 56.2338 215.737 56.2692C217.929 56.3051 220.062 55.1619 220.919 53.1432L222.163 50.2106C222.379 49.7024 222.967 49.4649 223.475 49.6803L236.542 55.2272C237.05 55.4431 237.287 56.0305 237.072 56.5387L235.578 60.0573C234.785 61.9253 235.345 64.0787 236.734 65.5583C238.181 67.0998 240.391 67.7554 242.352 66.9635L245.906 65.528C246.417 65.3212 247 65.569 247.207 66.0807L252.526 79.2428C252.732 79.7547 252.485 80.3377 251.973 80.5446L247.594 82.3131C245.843 83.0204 244.785 84.7664 244.729 86.654C244.671 88.6202 245.7 90.5307 247.511 91.2995L251.864 93.1471C252.372 93.363 252.608 93.9505 252.393 94.4586L246.847 107.525C246.631 108.033 246.044 108.271 245.535 108.055L240.613 105.965C238.945 105.258 237.022 105.753 235.717 107.008C234.389 108.287 233.849 110.217 234.539 111.926L236.545 116.89C236.752 117.402 236.504 117.985 235.992 118.192L222.83 123.508C222.319 123.715 221.737 123.468 221.53 122.957L219.524 117.994C218.833 116.285 217.105 115.27 215.262 115.273C213.451 115.276 211.723 116.256 211.015 117.923L208.926 122.845C208.71 123.354 208.123 123.59 207.615 123.375L194.548 117.829C194.04 117.613 193.802 117.025 194.018 116.517L195.866 112.166C196.634 110.355 196.047 108.266 194.64 106.892C193.289 105.573 191.314 105.052 189.563 105.759L185.185 107.529C184.673 107.736 184.089 107.488 183.882 106.976L178.565 93.8151C178.358 93.303 178.605 92.7192 179.117 92.5124L182.671 91.0758C184.632 90.2835 185.767 88.277 185.738 86.1627C185.709 84.1337 184.615 82.1959 182.747 81.403L179.228 79.9088C178.719 79.693 178.482 79.1057 178.698 78.5973L184.244 65.5309C184.46 65.0228 185.048 64.7849 185.556 65.0006L188.491 66.2467C190.509 67.1033 192.835 66.4442 194.387 64.8952C195.913 63.3714 196.545 61.1203 195.738 59.1208L194.545 56.1676C194.339 55.6557 194.585 55.0728 195.097 54.8659L208.258 49.5485ZM214.665 67.318C204.542 67.318 196.335 75.5248 196.335 85.6481C196.335 95.7713 204.542 103.978 214.665 103.978C224.788 103.978 232.994 95.7712 232.994 85.6481C232.994 75.5249 224.788 67.3183 214.665 67.318Z" fill="white"/>
<path d="M208.258 49.5485L210.506 55.1116L210.506 55.1116L208.258 49.5485ZM209.56 50.1012L215.123 47.8526L215.122 47.8523L209.56 50.1012ZM210.753 53.0534L216.316 50.8057L216.316 50.8047L210.753 53.0534ZM215.737 56.2692L215.638 62.2684L215.638 62.2684L215.737 56.2692ZM220.919 53.1432L226.442 55.4876L226.443 55.4865L220.919 53.1432ZM222.163 50.2106L216.64 47.8662L216.64 47.8673L222.163 50.2106ZM223.475 49.6803L225.819 44.1573L225.816 44.156L223.475 49.6803ZM236.542 55.2272L238.889 49.7052L238.887 49.7042L236.542 55.2272ZM237.072 56.5387L231.549 54.1943L231.548 54.1948L237.072 56.5387ZM235.578 60.0573L241.101 62.4017L241.102 62.4012L235.578 60.0573ZM236.734 65.5583L232.359 69.6648L232.359 69.665L236.734 65.5583ZM242.352 66.9635L244.599 72.5269L244.599 72.5268L242.352 66.9635ZM245.906 65.528L248.153 71.0912L248.153 71.0912L245.906 65.528ZM247.207 66.0807L252.77 63.8329L252.769 63.8303L247.207 66.0807ZM252.526 79.2428L258.09 76.9984L258.089 76.995L252.526 79.2428ZM251.973 80.5446L254.22 86.108L254.221 86.1076L251.973 80.5446ZM247.594 82.3131L245.347 76.7498L245.347 76.7499L247.594 82.3131ZM244.729 86.654L238.731 86.4765L238.731 86.4771L244.729 86.654ZM247.511 91.2995L245.166 96.8223L245.167 96.8224L247.511 91.2995ZM251.864 93.1471L254.211 87.6253L254.208 87.6241L251.864 93.1471ZM252.393 94.4586L257.916 96.8029L257.917 96.8009L252.393 94.4586ZM246.847 107.525L252.37 109.87L252.37 109.869L246.847 107.525ZM245.535 108.055L243.191 113.578L243.194 113.58L245.535 108.055ZM240.613 105.965L242.957 100.443L242.957 100.442L240.613 105.965ZM235.717 107.008L231.557 102.685L231.557 102.685L235.717 107.008ZM234.539 111.926L228.976 114.174L228.976 114.174L234.539 111.926ZM236.545 116.89L242.109 114.645L242.108 114.642L236.545 116.89ZM235.992 118.192L238.24 123.755L238.243 123.754L235.992 118.192ZM222.83 123.508L225.077 129.072L225.078 129.072L222.83 123.508ZM221.53 122.957L215.967 125.205L215.968 125.207L221.53 122.957ZM219.524 117.994L213.961 120.241L213.961 120.242L219.524 117.994ZM215.262 115.273L215.253 109.273H215.253L215.262 115.273ZM211.015 117.923L205.492 115.579L205.492 115.579L211.015 117.923ZM208.926 122.845L214.449 125.19L214.449 125.189L208.926 122.845ZM207.615 123.375L205.27 128.898L205.271 128.898L207.615 123.375ZM194.548 117.829L192.202 123.351L192.204 123.352L194.548 117.829ZM194.018 116.517L188.495 114.172L188.495 114.173L194.018 116.517ZM195.866 112.166L201.388 114.511L201.389 114.509L195.866 112.166ZM194.64 106.892L198.832 102.599L198.831 102.599L194.64 106.892ZM189.563 105.759L187.315 100.197L187.314 100.197L189.563 105.759ZM185.185 107.529L187.433 113.092L187.433 113.092L185.185 107.529ZM183.882 106.976L178.319 109.224L178.32 109.226L183.882 106.976ZM178.565 93.8151L184.128 91.5675L184.128 91.5675L178.565 93.8151ZM179.117 92.5124L181.365 98.0755L181.366 98.0751L179.117 92.5124ZM182.671 91.0758L180.423 85.513L180.423 85.5131L182.671 91.0758ZM185.738 86.1627L191.737 86.0794L191.737 86.0792L185.738 86.1627ZM182.747 81.403L180.403 86.9259L180.403 86.926L182.747 81.403ZM179.228 79.9088L181.572 74.3859L181.572 74.3859L179.228 79.9088ZM178.698 78.5973L173.175 76.2527L173.175 76.253L178.698 78.5973ZM184.244 65.5309L178.722 63.1843L178.721 63.1863L184.244 65.5309ZM185.556 65.0006L187.901 59.4779L187.9 59.4775L185.556 65.0006ZM188.491 66.2467L186.145 71.7695L186.146 71.7699L188.491 66.2467ZM194.387 64.8952L198.626 69.1412L198.626 69.1411L194.387 64.8952ZM195.738 59.1208L190.174 61.3672L190.175 61.3684L195.738 59.1208ZM194.545 56.1676L200.109 53.9212L200.109 53.9211L194.545 56.1676ZM195.097 54.8659L192.849 49.3028L192.848 49.3033L195.097 54.8659ZM214.665 67.318L214.665 61.318H214.665V67.318ZM196.335 85.6481H190.335V85.6482L196.335 85.6481ZM214.665 103.978V109.978H214.665L214.665 103.978ZM232.994 85.6481L238.994 85.6482V85.6481H232.994ZM208.258 49.5485L210.506 55.1116C207.942 56.1473 205.031 54.9064 203.997 52.3502L209.56 50.1012L215.122 47.8523C213.675 44.2722 209.598 42.536 206.01 43.9854L208.258 49.5485ZM209.56 50.1012L203.997 52.3499L205.191 55.302L210.753 53.0534L216.316 50.8047L215.123 47.8526L209.56 50.1012ZM210.753 53.0534L205.19 55.301C207.044 59.8886 211.477 62.2001 215.638 62.2684L215.737 56.2692L215.835 50.27C215.805 50.2695 215.839 50.2594 215.93 50.3165C216.038 50.3845 216.211 50.5444 216.316 50.8057L210.753 53.0534ZM215.737 56.2692L215.638 62.2684C219.793 62.3365 224.455 60.1684 226.442 55.4876L220.919 53.1432L215.396 50.7988C215.523 50.5005 215.717 50.3456 215.805 50.2946C215.873 50.2545 215.878 50.2707 215.835 50.27L215.737 56.2692ZM220.919 53.1432L226.443 55.4865L227.687 52.5539L222.163 50.2106L216.64 47.8673L215.396 50.7999L220.919 53.1432ZM222.163 50.2106L227.686 52.555C226.608 55.0965 223.674 56.2815 221.134 55.2047L223.475 49.6803L225.816 44.156C222.259 42.6483 218.151 44.3083 216.64 47.8662L222.163 50.2106ZM223.475 49.6803L221.13 55.2033L234.198 60.7502L236.542 55.2272L238.887 49.7042L225.819 44.1573L223.475 49.6803ZM236.542 55.2272L234.196 60.7492C231.653 59.6685 230.471 56.7332 231.549 54.1943L237.072 56.5387L242.595 58.8831C244.104 55.3278 242.448 51.2178 238.889 49.7052L236.542 55.2272ZM237.072 56.5387L231.548 54.1948L230.055 57.7134L235.578 60.0573L241.102 62.4012L242.595 58.8826L237.072 56.5387ZM235.578 60.0573L230.055 57.7129C228.175 62.1439 229.642 66.77 232.359 69.6648L236.734 65.5583L241.108 61.4517C241.12 61.4644 241.164 61.5119 241.193 61.642C241.226 61.7909 241.24 62.0754 241.101 62.4017L235.578 60.0573ZM236.734 65.5583L232.359 69.665C235.223 72.7146 239.986 74.39 244.599 72.5269L242.352 66.9635L240.105 61.4001C240.418 61.2738 240.707 61.2886 240.878 61.3336C241.028 61.3732 241.089 61.4316 241.108 61.4515L236.734 65.5583ZM242.352 66.9635L244.599 72.5268L248.153 71.0912L245.906 65.528L243.658 59.9647L240.105 61.4003L242.352 66.9635ZM245.906 65.528L248.153 71.0912C245.589 72.1271 242.679 70.8849 241.645 68.3311L247.207 66.0807L252.769 63.8303C251.322 60.253 247.246 58.5152 243.658 59.9648L245.906 65.528ZM247.207 66.0807L241.644 68.3285L246.963 81.4907L252.526 79.2428L258.089 76.995L252.77 63.8329L247.207 66.0807ZM252.526 79.2428L246.961 81.4873C245.93 78.9298 247.164 76.0167 249.725 74.9816L251.973 80.5446L254.221 86.1076C257.806 84.6588 259.535 80.5797 258.09 76.9984L252.526 79.2428ZM251.973 80.5446L249.726 74.9812L245.347 76.7498L247.594 82.3131L249.841 87.8765L254.22 86.108L251.973 80.5446ZM247.594 82.3131L245.347 76.7499C241.081 78.4732 238.847 82.5583 238.731 86.4765L244.729 86.654L250.726 86.8314C250.723 86.941 250.691 87.102 250.569 87.2918C250.437 87.4963 250.195 87.7337 249.841 87.8764L247.594 82.3131ZM244.729 86.654L238.731 86.4771C238.613 90.4821 240.707 94.929 245.166 96.8223L247.511 91.2995L249.856 85.7766C250.252 85.9449 250.493 86.2149 250.606 86.41C250.709 86.5875 250.729 86.7293 250.726 86.8309L244.729 86.654ZM247.511 91.2995L245.167 96.8224L249.519 98.6701L251.864 93.1471L254.208 87.6241L249.856 85.7765L247.511 91.2995ZM251.864 93.1471L249.516 98.669C246.972 97.5874 245.794 94.6525 246.869 92.1164L252.393 94.4586L257.917 96.8009C259.423 93.2485 257.771 89.1387 254.211 87.6253L251.864 93.1471ZM252.393 94.4586L246.87 92.1144L241.324 105.181L246.847 107.525L252.37 109.869L257.916 96.8029L252.393 94.4586ZM246.847 107.525L241.324 105.181C242.403 102.639 245.336 101.454 247.877 102.531L245.535 108.055L243.194 113.58C246.752 115.087 250.86 113.427 252.37 109.87L246.847 107.525ZM245.535 108.055L247.88 102.532L242.957 100.443L240.613 105.965L238.268 111.488L243.191 113.578L245.535 108.055ZM240.613 105.965L242.957 100.442C238.739 98.6521 234.313 100.033 231.557 102.685L235.717 107.008L239.877 111.332C239.764 111.441 239.597 111.548 239.349 111.604C239.084 111.663 238.69 111.667 238.268 111.489L240.613 105.965ZM235.717 107.008L231.557 102.685C228.716 105.419 227.243 109.885 228.976 114.174L234.539 111.926L240.103 109.679C240.454 110.55 240.061 111.155 239.878 111.332L235.717 107.008ZM234.539 111.926L228.976 114.174L230.982 119.138L236.545 116.89L242.108 114.642L240.102 109.678L234.539 111.926ZM236.545 116.89L230.981 119.135C229.948 116.575 231.185 113.664 233.742 112.63L235.992 118.192L238.243 123.754C241.823 122.306 243.556 118.229 242.109 114.645L236.545 116.89ZM235.992 118.192L233.745 112.629L220.583 117.945L222.83 123.508L225.078 129.072L238.24 123.755L235.992 118.192ZM222.83 123.508L220.584 117.945C223.142 116.912 226.056 118.146 227.091 120.706L221.53 122.957L215.968 125.207C217.418 128.79 221.495 130.518 225.077 129.072L222.83 123.508ZM221.53 122.957L227.092 120.708L225.087 115.745L219.524 117.994L213.961 120.242L215.967 125.205L221.53 122.957ZM219.524 117.994L225.087 115.746C223.355 111.46 219.198 109.267 215.253 109.273L215.262 115.273L215.271 121.273C215.013 121.273 214.311 121.109 213.961 120.241L219.524 117.994ZM215.262 115.273L215.253 109.273C211.426 109.279 207.282 111.361 205.492 115.579L211.015 117.923L216.538 120.268C216.359 120.69 216.072 120.961 215.84 121.102C215.624 121.233 215.429 121.273 215.271 121.273L215.262 115.273ZM211.015 117.923L205.492 115.579L203.403 120.501L208.926 122.845L214.449 125.189L216.538 120.268L211.015 117.923ZM208.926 122.845L203.403 120.501C204.485 117.953 207.422 116.775 209.959 117.851L207.615 123.375L205.271 128.898C208.823 130.406 212.936 128.754 214.449 125.19L208.926 122.845ZM207.615 123.375L209.959 117.852L196.892 112.306L194.548 117.829L192.204 123.352L205.27 128.898L207.615 123.375ZM194.548 117.829L196.894 112.306C199.43 113.384 200.622 116.314 199.541 118.861L194.018 116.517L188.495 114.173C186.983 117.737 188.65 121.842 192.202 123.351L194.548 117.829ZM194.018 116.517L199.541 118.862L201.388 114.511L195.866 112.166L190.343 109.821L188.495 114.172L194.018 116.517ZM195.866 112.166L201.389 114.509C203.281 110.049 201.698 105.398 198.832 102.599L194.64 106.892L190.448 111.185C190.376 111.115 190.292 110.999 190.242 110.799C190.188 110.58 190.174 110.219 190.342 109.822L195.866 112.166ZM194.64 106.892L198.831 102.599C196.027 99.8609 191.582 98.4721 187.315 100.197L189.563 105.759L191.811 111.322C191.457 111.465 191.118 111.463 190.881 111.407C190.662 111.356 190.527 111.262 190.449 111.186L194.64 106.892ZM189.563 105.759L187.314 100.197L182.936 101.966L185.185 107.529L187.433 113.092L191.811 111.322L189.563 105.759ZM185.185 107.529L182.937 101.966C185.497 100.932 188.41 102.167 189.445 104.727L183.882 106.976L178.32 109.226C179.769 112.809 183.849 114.54 187.433 113.092L185.185 107.529ZM183.882 106.976L189.445 104.729L184.128 91.5675L178.565 93.8151L173.002 96.0627L178.319 109.224L183.882 106.976ZM178.565 93.8151L184.128 91.5675C185.161 94.1255 183.928 97.0401 181.365 98.0755L179.117 92.5124L176.87 86.9493C173.283 88.3984 171.554 92.4805 173.002 96.0627L178.565 93.8151ZM179.117 92.5124L181.366 98.0751L184.92 96.6385L182.671 91.0758L180.423 85.5131L176.869 86.9496L179.117 92.5124ZM182.671 91.0758L184.92 96.6387C189.53 94.7752 191.795 90.2634 191.737 86.0794L185.738 86.1627L179.738 86.2461C179.738 86.2182 179.741 86.1336 179.822 86.0008C179.914 85.8499 180.111 85.6392 180.423 85.513L182.671 91.0758ZM185.738 86.1627L191.737 86.0792C191.682 82.1076 189.522 77.7606 185.092 75.88L182.747 81.403L180.403 86.926C180.077 86.7875 179.889 86.5733 179.81 86.4432C179.74 86.3295 179.738 86.2647 179.738 86.2463L185.738 86.1627ZM182.747 81.403L185.092 75.8801L181.572 74.3859L179.228 79.9088L176.883 85.4318L180.403 86.9259L182.747 81.403ZM179.228 79.9088L181.572 74.3859C184.11 75.4633 185.301 78.3961 184.221 80.9416L178.698 78.5973L173.175 76.253C171.662 79.8153 173.329 83.9228 176.883 85.4318L179.228 79.9088ZM178.698 78.5973L184.221 80.9419L189.767 67.8755L184.244 65.5309L178.721 63.1863L173.175 76.2527L178.698 78.5973ZM184.244 65.5309L189.767 67.8776C188.69 70.4117 185.759 71.6051 183.212 70.5237L185.556 65.0006L187.9 59.4775C184.336 57.9648 180.231 59.6339 178.722 63.1843L184.244 65.5309ZM185.556 65.0006L183.211 70.5234L186.145 71.7695L188.491 66.2467L190.836 60.724L187.901 59.4779L185.556 65.0006ZM188.491 66.2467L186.146 71.7699C190.827 73.7564 195.686 72.0769 198.626 69.1412L194.387 64.8952L190.148 60.6491C190.117 60.6796 190.11 60.6639 190.189 60.6447C190.288 60.6204 190.536 60.597 190.835 60.7236L188.491 66.2467ZM194.387 64.8952L198.626 69.1411C201.57 66.2024 203.154 61.461 201.301 56.8731L195.738 59.1208L190.175 61.3684C190.069 61.1064 190.082 60.8711 190.113 60.7472C190.138 60.6433 190.169 60.6278 190.148 60.6492L194.387 64.8952ZM195.738 59.1208L201.301 56.8743L200.109 53.9212L194.545 56.1676L188.982 58.414L190.174 61.3672L195.738 59.1208ZM194.545 56.1676L200.109 53.9211C201.139 56.4736 199.913 59.3907 197.346 60.4284L195.097 54.8659L192.848 49.3033C189.258 50.7549 187.538 54.8378 188.982 58.4141L194.545 56.1676ZM195.097 54.8659L197.345 60.429L210.506 55.1116L208.258 49.5485L206.01 43.9854L192.849 49.3028L195.097 54.8659ZM214.665 67.318V61.318C201.228 61.318 190.335 72.2111 190.335 85.6481H196.335H202.335C202.335 78.8385 207.856 73.318 214.665 73.318V67.318ZM196.335 85.6481L190.335 85.6482C190.335 99.0849 201.228 109.978 214.665 109.978V103.978V97.9782C207.856 97.9782 202.335 92.4577 202.335 85.648L196.335 85.6481ZM214.665 103.978L214.665 109.978C228.103 109.978 238.994 99.0845 238.994 85.6482L232.994 85.6481L226.994 85.648C226.994 92.4578 221.474 97.978 214.665 97.9782L214.665 103.978ZM232.994 85.6481H238.994C238.994 72.2115 228.103 61.3183 214.665 61.318L214.665 67.318L214.665 73.318C221.474 73.3182 226.994 78.8383 226.994 85.6481H232.994Z" fill="white" mask="url(#path-3-inside-1_138_58)"/>
</svg>
